ISO-10303-21;
HEADER;
/* Generated by software containing ST-Developer
 * from STEP Tools, Inc. (www.steptools.com) 
 */

FILE_DESCRIPTION(
/* description */ (''),
/* implementation_level */ '2;1');

FILE_NAME(
/* name */ 'hackpadenclosure.step',
/* time_stamp */ '2026-08-09T20:56:52-04:00',
/* author */ (''),
/* organization */ (''),
/* preprocessor_version */ 'ST-DEVELOPER v20.1',
/* originating_system */ 'Autodesk Translation Framework v15.8.0.0',
/* authorisation */ '');

FILE_SCHEMA (('AUTOMOTIVE_DESIGN { 1 0 10303 214 3 1 1 }'));
ENDSEC;

DATA;
#10=MECHANICAL_DESIGN_GEOMETRIC_PRESENTATION_REPRESENTATION('',(#13,#14),
#1738);
#11=SHAPE_REPRESENTATION_RELATIONSHIP('SRR','None',#1745,#12);
#12=ADVANCED_BREP_SHAPE_REPRESENTATION('',(#15,#16),#1737);
#13=STYLED_ITEM('',(#1754),#15);
#14=STYLED_ITEM('',(#1754),#16);
#15=MANIFOLD_SOLID_BREP('Body1',#1045);
#16=MANIFOLD_SOLID_BREP('Body2',#1046);
#17=CYLINDRICAL_SURFACE('',#1073,1.45);
#18=CYLINDRICAL_SURFACE('',#1075,1.45);
#19=CYLINDRICAL_SURFACE('',#1077,1.45);
#20=CYLINDRICAL_SURFACE('',#1079,1.45);
#21=CYLINDRICAL_SURFACE('',#1086,1.45);
#22=CYLINDRICAL_SURFACE('',#1089,1.45);
#23=CYLINDRICAL_SURFACE('',#1092,1.45);
#24=CYLINDRICAL_SURFACE('',#1095,1.45);
#25=CYLINDRICAL_SURFACE('',#1103,0.499999999999998);
#26=CYLINDRICAL_SURFACE('',#1107,0.499999999999998);
#27=CYLINDRICAL_SURFACE('',#1111,0.499999999999998);
#28=CYLINDRICAL_SURFACE('',#1115,0.5);
#29=CYLINDRICAL_SURFACE('',#1119,0.5);
#30=CYLINDRICAL_SURFACE('',#1123,0.499999999999998);
#31=CYLINDRICAL_SURFACE('',#1127,0.499999999999998);
#32=CYLINDRICAL_SURFACE('',#1131,0.5);
#33=CYLINDRICAL_SURFACE('',#1135,0.499999999999998);
#34=CYLINDRICAL_SURFACE('',#1139,0.499999999999998);
#35=CYLINDRICAL_SURFACE('',#1143,0.500000000000003);
#36=CYLINDRICAL_SURFACE('',#1147,0.5);
#37=FACE_BOUND('',#160,.T.);
#38=FACE_BOUND('',#161,.T.);
#39=FACE_BOUND('',#162,.T.);
#40=FACE_BOUND('',#163,.T.);
#41=FACE_BOUND('',#173,.T.);
#42=FACE_BOUND('',#174,.T.);
#43=FACE_BOUND('',#175,.T.);
#44=FACE_BOUND('',#176,.T.);
#45=FACE_BOUND('',#210,.T.);
#46=FACE_BOUND('',#211,.T.);
#47=FACE_BOUND('',#212,.T.);
#48=FACE_BOUND('',#213,.T.);
#49=FACE_BOUND('',#214,.T.);
#50=FACE_BOUND('',#215,.T.);
#51=FACE_BOUND('',#216,.T.);
#52=FACE_BOUND('',#218,.T.);
#53=FACE_BOUND('',#219,.T.);
#54=FACE_BOUND('',#220,.T.);
#55=FACE_BOUND('',#221,.T.);
#56=FACE_BOUND('',#222,.T.);
#57=FACE_BOUND('',#223,.T.);
#58=FACE_BOUND('',#224,.T.);
#59=CIRCLE('',#1069,1.45);
#60=CIRCLE('',#1070,1.45);
#61=CIRCLE('',#1071,1.45);
#62=CIRCLE('',#1072,1.45);
#63=CIRCLE('',#1074,1.45);
#64=CIRCLE('',#1076,1.45);
#65=CIRCLE('',#1078,1.45);
#66=CIRCLE('',#1080,1.45);
#67=CIRCLE('',#1087,1.45);
#68=CIRCLE('',#1088,1.45);
#69=CIRCLE('',#1090,1.45);
#70=CIRCLE('',#1091,1.45);
#71=CIRCLE('',#1093,1.45);
#72=CIRCLE('',#1094,1.45);
#73=CIRCLE('',#1096,1.45);
#74=CIRCLE('',#1097,1.45);
#75=CIRCLE('',#1104,0.499999999999998);
#76=CIRCLE('',#1105,0.499999999999998);
#77=CIRCLE('',#1108,0.499999999999998);
#78=CIRCLE('',#1109,0.499999999999998);
#79=CIRCLE('',#1112,0.499999999999998);
#80=CIRCLE('',#1113,0.499999999999998);
#81=CIRCLE('',#1116,0.5);
#82=CIRCLE('',#1117,0.5);
#83=CIRCLE('',#1120,0.5);
#84=CIRCLE('',#1121,0.5);
#85=CIRCLE('',#1124,0.499999999999998);
#86=CIRCLE('',#1125,0.499999999999998);
#87=CIRCLE('',#1128,0.499999999999998);
#88=CIRCLE('',#1129,0.499999999999998);
#89=CIRCLE('',#1132,0.5);
#90=CIRCLE('',#1133,0.5);
#91=CIRCLE('',#1136,0.499999999999998);
#92=CIRCLE('',#1137,0.499999999999998);
#93=CIRCLE('',#1140,0.499999999999998);
#94=CIRCLE('',#1141,0.499999999999998);
#95=CIRCLE('',#1144,0.500000000000003);
#96=CIRCLE('',#1145,0.500000000000003);
#97=CIRCLE('',#1148,0.5);
#98=CIRCLE('',#1149,0.5);
#99=FACE_OUTER_BOUND('',#151,.T.);
#100=FACE_OUTER_BOUND('',#152,.T.);
#101=FACE_OUTER_BOUND('',#153,.T.);
#102=FACE_OUTER_BOUND('',#154,.T.);
#103=FACE_OUTER_BOUND('',#155,.T.);
#104=FACE_OUTER_BOUND('',#156,.T.);
#105=FACE_OUTER_BOUND('',#157,.T.);
#106=FACE_OUTER_BOUND('',#158,.T.);
#107=FACE_OUTER_BOUND('',#159,.T.);
#108=FACE_OUTER_BOUND('',#164,.T.);
#109=FACE_OUTER_BOUND('',#165,.T.);
#110=FACE_OUTER_BOUND('',#166,.T.);
#111=FACE_OUTER_BOUND('',#167,.T.);
#112=FACE_OUTER_BOUND('',#168,.T.);
#113=FACE_OUTER_BOUND('',#169,.T.);
#114=FACE_OUTER_BOUND('',#170,.T.);
#115=FACE_OUTER_BOUND('',#171,.T.);
#116=FACE_OUTER_BOUND('',#172,.T.);
#117=FACE_OUTER_BOUND('',#177,.T.);
#118=FACE_OUTER_BOUND('',#178,.T.);
#119=FACE_OUTER_BOUND('',#179,.T.);
#120=FACE_OUTER_BOUND('',#180,.T.);
#121=FACE_OUTER_BOUND('',#181,.T.);
#122=FACE_OUTER_BOUND('',#182,.T.);
#123=FACE_OUTER_BOUND('',#183,.T.);
#124=FACE_OUTER_BOUND('',#184,.T.);
#125=FACE_OUTER_BOUND('',#185,.T.);
#126=FACE_OUTER_BOUND('',#186,.T.);
#127=FACE_OUTER_BOUND('',#187,.T.);
#128=FACE_OUTER_BOUND('',#188,.T.);
#129=FACE_OUTER_BOUND('',#189,.T.);
#130=FACE_OUTER_BOUND('',#190,.T.);
#131=FACE_OUTER_BOUND('',#191,.T.);
#132=FACE_OUTER_BOUND('',#192,.T.);
#133=FACE_OUTER_BOUND('',#193,.T.);
#134=FACE_OUTER_BOUND('',#194,.T.);
#135=FACE_OUTER_BOUND('',#195,.T.);
#136=FACE_OUTER_BOUND('',#196,.T.);
#137=FACE_OUTER_BOUND('',#197,.T.);
#138=FACE_OUTER_BOUND('',#198,.T.);
#139=FACE_OUTER_BOUND('',#199,.T.);
#140=FACE_OUTER_BOUND('',#200,.T.);
#141=FACE_OUTER_BOUND('',#201,.T.);
#142=FACE_OUTER_BOUND('',#202,.T.);
#143=FACE_OUTER_BOUND('',#203,.T.);
#144=FACE_OUTER_BOUND('',#204,.T.);
#145=FACE_OUTER_BOUND('',#205,.T.);
#146=FACE_OUTER_BOUND('',#206,.T.);
#147=FACE_OUTER_BOUND('',#207,.T.);
#148=FACE_OUTER_BOUND('',#208,.T.);
#149=FACE_OUTER_BOUND('',#209,.T.);
#150=FACE_OUTER_BOUND('',#217,.T.);
#151=EDGE_LOOP('',(#673,#674,#675,#676));
#152=EDGE_LOOP('',(#677,#678,#679,#680));
#153=EDGE_LOOP('',(#681,#682,#683,#684));
#154=EDGE_LOOP('',(#685,#686,#687,#688,#689,#690,#691,#692));
#155=EDGE_LOOP('',(#693,#694,#695,#696,#697,#698,#699,#700));
#156=EDGE_LOOP('',(#701,#702,#703,#704));
#157=EDGE_LOOP('',(#705,#706,#707,#708));
#158=EDGE_LOOP('',(#709,#710,#711,#712));
#159=EDGE_LOOP('',(#713,#714,#715,#716,#717,#718,#719,#720,#721,#722,#723,
#724));
#160=EDGE_LOOP('',(#725));
#161=EDGE_LOOP('',(#726));
#162=EDGE_LOOP('',(#727));
#163=EDGE_LOOP('',(#728));
#164=EDGE_LOOP('',(#729,#730,#731,#732));
#165=EDGE_LOOP('',(#733,#734,#735,#736));
#166=EDGE_LOOP('',(#737,#738,#739,#740));
#167=EDGE_LOOP('',(#741,#742,#743,#744));
#168=EDGE_LOOP('',(#745,#746,#747,#748));
#169=EDGE_LOOP('',(#749,#750,#751,#752));
#170=EDGE_LOOP('',(#753,#754,#755,#756));
#171=EDGE_LOOP('',(#757,#758,#759,#760));
#172=EDGE_LOOP('',(#761,#762,#763,#764));
#173=EDGE_LOOP('',(#765));
#174=EDGE_LOOP('',(#766));
#175=EDGE_LOOP('',(#767));
#176=EDGE_LOOP('',(#768));
#177=EDGE_LOOP('',(#769,#770,#771,#772));
#178=EDGE_LOOP('',(#773,#774,#775,#776));
#179=EDGE_LOOP('',(#777,#778,#779,#780));
#180=EDGE_LOOP('',(#781,#782,#783,#784));
#181=EDGE_LOOP('',(#785,#786,#787,#788));
#182=EDGE_LOOP('',(#789,#790,#791,#792));
#183=EDGE_LOOP('',(#793,#794,#795,#796));
#184=EDGE_LOOP('',(#797,#798,#799,#800));
#185=EDGE_LOOP('',(#801,#802,#803,#804));
#186=EDGE_LOOP('',(#805,#806,#807,#808));
#187=EDGE_LOOP('',(#809,#810,#811,#812));
#188=EDGE_LOOP('',(#813,#814,#815,#816));
#189=EDGE_LOOP('',(#817,#818,#819,#820));
#190=EDGE_LOOP('',(#821,#822,#823,#824));
#191=EDGE_LOOP('',(#825,#826,#827,#828));
#192=EDGE_LOOP('',(#829,#830,#831,#832));
#193=EDGE_LOOP('',(#833,#834,#835,#836));
#194=EDGE_LOOP('',(#837,#838,#839,#840));
#195=EDGE_LOOP('',(#841,#842,#843,#844));
#196=EDGE_LOOP('',(#845,#846,#847,#848));
#197=EDGE_LOOP('',(#849,#850,#851,#852));
#198=EDGE_LOOP('',(#853,#854,#855,#856));
#199=EDGE_LOOP('',(#857,#858,#859,#860));
#200=EDGE_LOOP('',(#861,#862,#863,#864));
#201=EDGE_LOOP('',(#865,#866,#867,#868));
#202=EDGE_LOOP('',(#869,#870,#871,#872));
#203=EDGE_LOOP('',(#873,#874,#875,#876));
#204=EDGE_LOOP('',(#877,#878,#879,#880));
#205=EDGE_LOOP('',(#881,#882,#883,#884));
#206=EDGE_LOOP('',(#885,#886,#887,#888));
#207=EDGE_LOOP('',(#889,#890,#891,#892));
#208=EDGE_LOOP('',(#893,#894,#895,#896));
#209=EDGE_LOOP('',(#897,#898,#899,#900));
#210=EDGE_LOOP('',(#901));
#211=EDGE_LOOP('',(#902));
#212=EDGE_LOOP('',(#903));
#213=EDGE_LOOP('',(#904));
#214=EDGE_LOOP('',(#905,#906,#907,#908,#909,#910,#911,#912));
#215=EDGE_LOOP('',(#913,#914,#915,#916,#917,#918,#919,#920));
#216=EDGE_LOOP('',(#921,#922,#923,#924,#925,#926,#927,#928));
#217=EDGE_LOOP('',(#929,#930,#931,#932));
#218=EDGE_LOOP('',(#933));
#219=EDGE_LOOP('',(#934));
#220=EDGE_LOOP('',(#935));
#221=EDGE_LOOP('',(#936));
#222=EDGE_LOOP('',(#937,#938,#939,#940,#941,#942,#943,#944));
#223=EDGE_LOOP('',(#945,#946,#947,#948,#949,#950,#951,#952));
#224=EDGE_LOOP('',(#953,#954,#955,#956,#957,#958,#959,#960));
#225=LINE('',#1446,#329);
#226=LINE('',#1448,#330);
#227=LINE('',#1450,#331);
#228=LINE('',#1451,#332);
#229=LINE('',#1454,#333);
#230=LINE('',#1456,#334);
#231=LINE('',#1457,#335);
#232=LINE('',#1460,#336);
#233=LINE('',#1462,#337);
#234=LINE('',#1463,#338);
#235=LINE('',#1466,#339);
#236=LINE('',#1468,#340);
#237=LINE('',#1470,#341);
#238=LINE('',#1472,#342);
#239=LINE('',#1473,#343);
#240=LINE('',#1476,#344);
#241=LINE('',#1478,#345);
#242=LINE('',#1480,#346);
#243=LINE('',#1482,#347);
#244=LINE('',#1483,#348);
#245=LINE('',#1486,#349);
#246=LINE('',#1488,#350);
#247=LINE('',#1489,#351);
#248=LINE('',#1492,#352);
#249=LINE('',#1494,#353);
#250=LINE('',#1495,#354);
#251=LINE('',#1497,#355);
#252=LINE('',#1498,#356);
#253=LINE('',#1501,#357);
#254=LINE('',#1503,#358);
#255=LINE('',#1504,#359);
#256=LINE('',#1515,#360);
#257=LINE('',#1519,#361);
#258=LINE('',#1523,#362);
#259=LINE('',#1527,#363);
#260=LINE('',#1531,#364);
#261=LINE('',#1532,#365);
#262=LINE('',#1535,#366);
#263=LINE('',#1536,#367);
#264=LINE('',#1538,#368);
#265=LINE('',#1545,#369);
#266=LINE('',#1551,#370);
#267=LINE('',#1557,#371);
#268=LINE('',#1563,#372);
#269=LINE('',#1568,#373);
#270=LINE('',#1570,#374);
#271=LINE('',#1572,#375);
#272=LINE('',#1573,#376);
#273=LINE('',#1576,#377);
#274=LINE('',#1578,#378);
#275=LINE('',#1579,#379);
#276=LINE('',#1582,#380);
#277=LINE('',#1584,#381);
#278=LINE('',#1585,#382);
#279=LINE('',#1587,#383);
#280=LINE('',#1588,#384);
#281=LINE('',#1592,#385);
#282=LINE('',#1594,#386);
#283=LINE('',#1596,#387);
#284=LINE('',#1597,#388);
#285=LINE('',#1603,#389);
#286=LINE('',#1606,#390);
#287=LINE('',#1608,#391);
#288=LINE('',#1609,#392);
#289=LINE('',#1615,#393);
#290=LINE('',#1618,#394);
#291=LINE('',#1620,#395);
#292=LINE('',#1621,#396);
#293=LINE('',#1627,#397);
#294=LINE('',#1630,#398);
#295=LINE('',#1632,#399);
#296=LINE('',#1633,#400);
#297=LINE('',#1640,#401);
#298=LINE('',#1642,#402);
#299=LINE('',#1644,#403);
#300=LINE('',#1645,#404);
#301=LINE('',#1651,#405);
#302=LINE('',#1654,#406);
#303=LINE('',#1656,#407);
#304=LINE('',#1657,#408);
#305=LINE('',#1663,#409);
#306=LINE('',#1666,#410);
#307=LINE('',#1668,#411);
#308=LINE('',#1669,#412);
#309=LINE('',#1675,#413);
#310=LINE('',#1678,#414);
#311=LINE('',#1680,#415);
#312=LINE('',#1681,#416);
#313=LINE('',#1688,#417);
#314=LINE('',#1690,#418);
#315=LINE('',#1692,#419);
#316=LINE('',#1693,#420);
#317=LINE('',#1699,#421);
#318=LINE('',#1702,#422);
#319=LINE('',#1704,#423);
#320=LINE('',#1705,#424);
#321=LINE('',#1711,#425);
#322=LINE('',#1714,#426);
#323=LINE('',#1716,#427);
#324=LINE('',#1717,#428);
#325=LINE('',#1723,#429);
#326=LINE('',#1726,#430);
#327=LINE('',#1728,#431);
#328=LINE('',#1729,#432);
#329=VECTOR('',#1156,10.);
#330=VECTOR('',#1157,10.);
#331=VECTOR('',#1158,10.);
#332=VECTOR('',#1159,10.);
#333=VECTOR('',#1162,10.);
#334=VECTOR('',#1163,10.);
#335=VECTOR('',#1164,10.);
#336=VECTOR('',#1167,10.);
#337=VECTOR('',#1168,10.);
#338=VECTOR('',#1169,10.);
#339=VECTOR('',#1172,10.);
#340=VECTOR('',#1173,10.);
#341=VECTOR('',#1174,10.);
#342=VECTOR('',#1175,10.);
#343=VECTOR('',#1176,10.);
#344=VECTOR('',#1179,10.);
#345=VECTOR('',#1180,10.);
#346=VECTOR('',#1181,10.);
#347=VECTOR('',#1182,10.);
#348=VECTOR('',#1183,10.);
#349=VECTOR('',#1186,10.);
#350=VECTOR('',#1187,10.);
#351=VECTOR('',#1188,10.);
#352=VECTOR('',#1191,10.);
#353=VECTOR('',#1192,10.);
#354=VECTOR('',#1193,10.);
#355=VECTOR('',#1196,10.);
#356=VECTOR('',#1197,10.);
#357=VECTOR('',#1200,10.);
#358=VECTOR('',#1201,10.);
#359=VECTOR('',#1202,10.);
#360=VECTOR('',#1213,1.45);
#361=VECTOR('',#1218,1.45);
#362=VECTOR('',#1223,1.45);
#363=VECTOR('',#1228,1.45);
#364=VECTOR('',#1233,10.);
#365=VECTOR('',#1234,10.);
#366=VECTOR('',#1237,10.);
#367=VECTOR('',#1238,10.);
#368=VECTOR('',#1241,10.);
#369=VECTOR('',#1250,1.45);
#370=VECTOR('',#1257,1.45);
#371=VECTOR('',#1264,1.45);
#372=VECTOR('',#1271,1.45);
#373=VECTOR('',#1276,10.);
#374=VECTOR('',#1277,10.);
#375=VECTOR('',#1278,10.);
#376=VECTOR('',#1279,10.);
#377=VECTOR('',#1282,10.);
#378=VECTOR('',#1283,10.);
#379=VECTOR('',#1284,10.);
#380=VECTOR('',#1287,10.);
#381=VECTOR('',#1288,10.);
#382=VECTOR('',#1289,10.);
#383=VECTOR('',#1292,10.);
#384=VECTOR('',#1293,10.);
#385=VECTOR('',#1296,10.);
#386=VECTOR('',#1297,10.);
#387=VECTOR('',#1298,10.);
#388=VECTOR('',#1299,10.);
#389=VECTOR('',#1306,10.);
#390=VECTOR('',#1309,10.);
#391=VECTOR('',#1310,10.);
#392=VECTOR('',#1311,10.);
#393=VECTOR('',#1318,10.);
#394=VECTOR('',#1321,10.);
#395=VECTOR('',#1322,10.);
#396=VECTOR('',#1323,10.);
#397=VECTOR('',#1330,10.);
#398=VECTOR('',#1333,10.);
#399=VECTOR('',#1334,10.);
#400=VECTOR('',#1335,10.);
#401=VECTOR('',#1344,10.);
#402=VECTOR('',#1345,10.);
#403=VECTOR('',#1346,10.);
#404=VECTOR('',#1347,10.);
#405=VECTOR('',#1354,10.);
#406=VECTOR('',#1357,10.);
#407=VECTOR('',#1358,10.);
#408=VECTOR('',#1359,10.);
#409=VECTOR('',#1366,10.);
#410=VECTOR('',#1369,10.);
#411=VECTOR('',#1370,10.);
#412=VECTOR('',#1371,10.);
#413=VECTOR('',#1378,10.);
#414=VECTOR('',#1381,10.);
#415=VECTOR('',#1382,10.);
#416=VECTOR('',#1383,10.);
#417=VECTOR('',#1392,10.);
#418=VECTOR('',#1393,10.);
#419=VECTOR('',#1394,10.);
#420=VECTOR('',#1395,10.);
#421=VECTOR('',#1402,10.);
#422=VECTOR('',#1405,10.);
#423=VECTOR('',#1406,10.);
#424=VECTOR('',#1407,10.);
#425=VECTOR('',#1414,10.);
#426=VECTOR('',#1417,10.);
#427=VECTOR('',#1418,10.);
#428=VECTOR('',#1419,10.);
#429=VECTOR('',#1426,10.);
#430=VECTOR('',#1429,10.);
#431=VECTOR('',#1430,10.);
#432=VECTOR('',#1431,10.);
#433=VERTEX_POINT('',#1444);
#434=VERTEX_POINT('',#1445);
#435=VERTEX_POINT('',#1447);
#436=VERTEX_POINT('',#1449);
#437=VERTEX_POINT('',#1453);
#438=VERTEX_POINT('',#1455);
#439=VERTEX_POINT('',#1459);
#440=VERTEX_POINT('',#1461);
#441=VERTEX_POINT('',#1465);
#442=VERTEX_POINT('',#1467);
#443=VERTEX_POINT('',#1469);
#444=VERTEX_POINT('',#1471);
#445=VERTEX_POINT('',#1475);
#446=VERTEX_POINT('',#1477);
#447=VERTEX_POINT('',#1479);
#448=VERTEX_POINT('',#1481);
#449=VERTEX_POINT('',#1485);
#450=VERTEX_POINT('',#1487);
#451=VERTEX_POINT('',#1491);
#452=VERTEX_POINT('',#1493);
#453=VERTEX_POINT('',#1500);
#454=VERTEX_POINT('',#1502);
#455=VERTEX_POINT('',#1505);
#456=VERTEX_POINT('',#1507);
#457=VERTEX_POINT('',#1509);
#458=VERTEX_POINT('',#1511);
#459=VERTEX_POINT('',#1514);
#460=VERTEX_POINT('',#1518);
#461=VERTEX_POINT('',#1522);
#462=VERTEX_POINT('',#1526);
#463=VERTEX_POINT('',#1530);
#464=VERTEX_POINT('',#1534);
#465=VERTEX_POINT('',#1542);
#466=VERTEX_POINT('',#1544);
#467=VERTEX_POINT('',#1548);
#468=VERTEX_POINT('',#1550);
#469=VERTEX_POINT('',#1554);
#470=VERTEX_POINT('',#1556);
#471=VERTEX_POINT('',#1560);
#472=VERTEX_POINT('',#1562);
#473=VERTEX_POINT('',#1566);
#474=VERTEX_POINT('',#1567);
#475=VERTEX_POINT('',#1569);
#476=VERTEX_POINT('',#1571);
#477=VERTEX_POINT('',#1575);
#478=VERTEX_POINT('',#1577);
#479=VERTEX_POINT('',#1581);
#480=VERTEX_POINT('',#1583);
#481=VERTEX_POINT('',#1590);
#482=VERTEX_POINT('',#1591);
#483=VERTEX_POINT('',#1593);
#484=VERTEX_POINT('',#1595);
#485=VERTEX_POINT('',#1599);
#486=VERTEX_POINT('',#1601);
#487=VERTEX_POINT('',#1605);
#488=VERTEX_POINT('',#1607);
#489=VERTEX_POINT('',#1611);
#490=VERTEX_POINT('',#1613);
#491=VERTEX_POINT('',#1617);
#492=VERTEX_POINT('',#1619);
#493=VERTEX_POINT('',#1623);
#494=VERTEX_POINT('',#1625);
#495=VERTEX_POINT('',#1629);
#496=VERTEX_POINT('',#1631);
#497=VERTEX_POINT('',#1638);
#498=VERTEX_POINT('',#1639);
#499=VERTEX_POINT('',#1641);
#500=VERTEX_POINT('',#1643);
#501=VERTEX_POINT('',#1647);
#502=VERTEX_POINT('',#1649);
#503=VERTEX_POINT('',#1653);
#504=VERTEX_POINT('',#1655);
#505=VERTEX_POINT('',#1659);
#506=VERTEX_POINT('',#1661);
#507=VERTEX_POINT('',#1665);
#508=VERTEX_POINT('',#1667);
#509=VERTEX_POINT('',#1671);
#510=VERTEX_POINT('',#1673);
#511=VERTEX_POINT('',#1677);
#512=VERTEX_POINT('',#1679);
#513=VERTEX_POINT('',#1686);
#514=VERTEX_POINT('',#1687);
#515=VERTEX_POINT('',#1689);
#516=VERTEX_POINT('',#1691);
#517=VERTEX_POINT('',#1695);
#518=VERTEX_POINT('',#1697);
#519=VERTEX_POINT('',#1701);
#520=VERTEX_POINT('',#1703);
#521=VERTEX_POINT('',#1707);
#522=VERTEX_POINT('',#1709);
#523=VERTEX_POINT('',#1713);
#524=VERTEX_POINT('',#1715);
#525=VERTEX_POINT('',#1719);
#526=VERTEX_POINT('',#1721);
#527=VERTEX_POINT('',#1725);
#528=VERTEX_POINT('',#1727);
#529=EDGE_CURVE('',#433,#434,#225,.T.);
#530=EDGE_CURVE('',#433,#435,#226,.T.);
#531=EDGE_CURVE('',#436,#435,#227,.T.);
#532=EDGE_CURVE('',#434,#436,#228,.T.);
#533=EDGE_CURVE('',#437,#433,#229,.T.);
#534=EDGE_CURVE('',#437,#438,#230,.T.);
#535=EDGE_CURVE('',#435,#438,#231,.T.);
#536=EDGE_CURVE('',#439,#437,#232,.T.);
#537=EDGE_CURVE('',#440,#439,#233,.T.);
#538=EDGE_CURVE('',#438,#440,#234,.T.);
#539=EDGE_CURVE('',#441,#440,#235,.T.);
#540=EDGE_CURVE('',#442,#441,#236,.T.);
#541=EDGE_CURVE('',#443,#442,#237,.T.);
#542=EDGE_CURVE('',#443,#444,#238,.T.);
#543=EDGE_CURVE('',#436,#444,#239,.T.);
#544=EDGE_CURVE('',#445,#434,#240,.T.);
#545=EDGE_CURVE('',#446,#445,#241,.T.);
#546=EDGE_CURVE('',#446,#447,#242,.T.);
#547=EDGE_CURVE('',#447,#448,#243,.T.);
#548=EDGE_CURVE('',#439,#448,#244,.T.);
#549=EDGE_CURVE('',#449,#443,#245,.T.);
#550=EDGE_CURVE('',#449,#450,#246,.T.);
#551=EDGE_CURVE('',#444,#450,#247,.T.);
#552=EDGE_CURVE('',#442,#451,#248,.T.);
#553=EDGE_CURVE('',#452,#441,#249,.T.);
#554=EDGE_CURVE('',#451,#452,#250,.T.);
#555=EDGE_CURVE('',#451,#449,#251,.T.);
#556=EDGE_CURVE('',#450,#452,#252,.T.);
#557=EDGE_CURVE('',#448,#453,#253,.T.);
#558=EDGE_CURVE('',#453,#454,#254,.T.);
#559=EDGE_CURVE('',#454,#445,#255,.T.);
#560=EDGE_CURVE('',#455,#455,#59,.T.);
#561=EDGE_CURVE('',#456,#456,#60,.T.);
#562=EDGE_CURVE('',#457,#457,#61,.T.);
#563=EDGE_CURVE('',#458,#458,#62,.T.);
#564=EDGE_CURVE('',#455,#459,#256,.T.);
#565=EDGE_CURVE('',#459,#459,#63,.T.);
#566=EDGE_CURVE('',#456,#460,#257,.T.);
#567=EDGE_CURVE('',#460,#460,#64,.T.);
#568=EDGE_CURVE('',#458,#461,#258,.T.);
#569=EDGE_CURVE('',#461,#461,#65,.T.);
#570=EDGE_CURVE('',#457,#462,#259,.T.);
#571=EDGE_CURVE('',#462,#462,#66,.T.);
#572=EDGE_CURVE('',#447,#463,#260,.T.);
#573=EDGE_CURVE('',#463,#453,#261,.T.);
#574=EDGE_CURVE('',#464,#446,#262,.T.);
#575=EDGE_CURVE('',#464,#454,#263,.T.);
#576=EDGE_CURVE('',#463,#464,#264,.T.);
#577=EDGE_CURVE('',#465,#465,#67,.T.);
#578=EDGE_CURVE('',#465,#466,#265,.T.);
#579=EDGE_CURVE('',#466,#466,#68,.T.);
#580=EDGE_CURVE('',#467,#467,#69,.T.);
#581=EDGE_CURVE('',#467,#468,#266,.T.);
#582=EDGE_CURVE('',#468,#468,#70,.T.);
#583=EDGE_CURVE('',#469,#469,#71,.T.);
#584=EDGE_CURVE('',#469,#470,#267,.T.);
#585=EDGE_CURVE('',#470,#470,#72,.T.);
#586=EDGE_CURVE('',#471,#471,#73,.T.);
#587=EDGE_CURVE('',#471,#472,#268,.T.);
#588=EDGE_CURVE('',#472,#472,#74,.T.);
#589=EDGE_CURVE('',#473,#474,#269,.T.);
#590=EDGE_CURVE('',#474,#475,#270,.T.);
#591=EDGE_CURVE('',#476,#475,#271,.T.);
#592=EDGE_CURVE('',#473,#476,#272,.T.);
#593=EDGE_CURVE('',#477,#473,#273,.T.);
#594=EDGE_CURVE('',#478,#476,#274,.T.);
#595=EDGE_CURVE('',#477,#478,#275,.T.);
#596=EDGE_CURVE('',#479,#477,#276,.T.);
#597=EDGE_CURVE('',#480,#478,#277,.T.);
#598=EDGE_CURVE('',#479,#480,#278,.T.);
#599=EDGE_CURVE('',#474,#479,#279,.T.);
#600=EDGE_CURVE('',#475,#480,#280,.T.);
#601=EDGE_CURVE('',#481,#482,#281,.T.);
#602=EDGE_CURVE('',#482,#483,#282,.T.);
#603=EDGE_CURVE('',#484,#483,#283,.T.);
#604=EDGE_CURVE('',#481,#484,#284,.T.);
#605=EDGE_CURVE('',#485,#481,#75,.T.);
#606=EDGE_CURVE('',#486,#484,#76,.T.);
#607=EDGE_CURVE('',#485,#486,#285,.T.);
#608=EDGE_CURVE('',#487,#485,#286,.T.);
#609=EDGE_CURVE('',#488,#486,#287,.T.);
#610=EDGE_CURVE('',#487,#488,#288,.T.);
#611=EDGE_CURVE('',#489,#487,#77,.T.);
#612=EDGE_CURVE('',#490,#488,#78,.T.);
#613=EDGE_CURVE('',#489,#490,#289,.T.);
#614=EDGE_CURVE('',#491,#489,#290,.T.);
#615=EDGE_CURVE('',#492,#490,#291,.T.);
#616=EDGE_CURVE('',#491,#492,#292,.T.);
#617=EDGE_CURVE('',#493,#491,#79,.T.);
#618=EDGE_CURVE('',#494,#492,#80,.T.);
#619=EDGE_CURVE('',#493,#494,#293,.T.);
#620=EDGE_CURVE('',#495,#493,#294,.T.);
#621=EDGE_CURVE('',#496,#494,#295,.T.);
#622=EDGE_CURVE('',#495,#496,#296,.T.);
#623=EDGE_CURVE('',#482,#495,#81,.T.);
#624=EDGE_CURVE('',#483,#496,#82,.T.);
#625=EDGE_CURVE('',#497,#498,#297,.T.);
#626=EDGE_CURVE('',#498,#499,#298,.T.);
#627=EDGE_CURVE('',#500,#499,#299,.T.);
#628=EDGE_CURVE('',#497,#500,#300,.T.);
#629=EDGE_CURVE('',#501,#497,#83,.T.);
#630=EDGE_CURVE('',#502,#500,#84,.T.);
#631=EDGE_CURVE('',#501,#502,#301,.T.);
#632=EDGE_CURVE('',#503,#501,#302,.T.);
#633=EDGE_CURVE('',#504,#502,#303,.T.);
#634=EDGE_CURVE('',#503,#504,#304,.T.);
#635=EDGE_CURVE('',#505,#503,#85,.T.);
#636=EDGE_CURVE('',#506,#504,#86,.T.);
#637=EDGE_CURVE('',#505,#506,#305,.T.);
#638=EDGE_CURVE('',#507,#505,#306,.T.);
#639=EDGE_CURVE('',#508,#506,#307,.T.);
#640=EDGE_CURVE('',#507,#508,#308,.T.);
#641=EDGE_CURVE('',#509,#507,#87,.T.);
#642=EDGE_CURVE('',#510,#508,#88,.T.);
#643=EDGE_CURVE('',#509,#510,#309,.T.);
#644=EDGE_CURVE('',#511,#509,#310,.T.);
#645=EDGE_CURVE('',#512,#510,#311,.T.);
#646=EDGE_CURVE('',#511,#512,#312,.T.);
#647=EDGE_CURVE('',#498,#511,#89,.T.);
#648=EDGE_CURVE('',#499,#512,#90,.T.);
#649=EDGE_CURVE('',#513,#514,#313,.T.);
#650=EDGE_CURVE('',#514,#515,#314,.T.);
#651=EDGE_CURVE('',#516,#515,#315,.T.);
#652=EDGE_CURVE('',#513,#516,#316,.T.);
#653=EDGE_CURVE('',#517,#513,#91,.T.);
#654=EDGE_CURVE('',#518,#516,#92,.T.);
#655=EDGE_CURVE('',#517,#518,#317,.T.);
#656=EDGE_CURVE('',#519,#517,#318,.T.);
#657=EDGE_CURVE('',#520,#518,#319,.T.);
#658=EDGE_CURVE('',#519,#520,#320,.T.);
#659=EDGE_CURVE('',#521,#519,#93,.T.);
#660=EDGE_CURVE('',#522,#520,#94,.T.);
#661=EDGE_CURVE('',#521,#522,#321,.T.);
#662=EDGE_CURVE('',#523,#521,#322,.T.);
#663=EDGE_CURVE('',#524,#522,#323,.T.);
#664=EDGE_CURVE('',#523,#524,#324,.T.);
#665=EDGE_CURVE('',#525,#523,#95,.T.);
#666=EDGE_CURVE('',#526,#524,#96,.T.);
#667=EDGE_CURVE('',#525,#526,#325,.T.);
#668=EDGE_CURVE('',#527,#525,#326,.T.);
#669=EDGE_CURVE('',#528,#526,#327,.T.);
#670=EDGE_CURVE('',#527,#528,#328,.T.);
#671=EDGE_CURVE('',#514,#527,#97,.T.);
#672=EDGE_CURVE('',#515,#528,#98,.T.);
#673=ORIENTED_EDGE('',*,*,#529,.F.);
#674=ORIENTED_EDGE('',*,*,#530,.T.);
#675=ORIENTED_EDGE('',*,*,#531,.F.);
#676=ORIENTED_EDGE('',*,*,#532,.F.);
#677=ORIENTED_EDGE('',*,*,#533,.F.);
#678=ORIENTED_EDGE('',*,*,#534,.T.);
#679=ORIENTED_EDGE('',*,*,#535,.F.);
#680=ORIENTED_EDGE('',*,*,#530,.F.);
#681=ORIENTED_EDGE('',*,*,#536,.F.);
#682=ORIENTED_EDGE('',*,*,#537,.F.);
#683=ORIENTED_EDGE('',*,*,#538,.F.);
#684=ORIENTED_EDGE('',*,*,#534,.F.);
#685=ORIENTED_EDGE('',*,*,#531,.T.);
#686=ORIENTED_EDGE('',*,*,#535,.T.);
#687=ORIENTED_EDGE('',*,*,#538,.T.);
#688=ORIENTED_EDGE('',*,*,#539,.F.);
#689=ORIENTED_EDGE('',*,*,#540,.F.);
#690=ORIENTED_EDGE('',*,*,#541,.F.);
#691=ORIENTED_EDGE('',*,*,#542,.T.);
#692=ORIENTED_EDGE('',*,*,#543,.F.);
#693=ORIENTED_EDGE('',*,*,#536,.T.);
#694=ORIENTED_EDGE('',*,*,#533,.T.);
#695=ORIENTED_EDGE('',*,*,#529,.T.);
#696=ORIENTED_EDGE('',*,*,#544,.F.);
#697=ORIENTED_EDGE('',*,*,#545,.F.);
#698=ORIENTED_EDGE('',*,*,#546,.T.);
#699=ORIENTED_EDGE('',*,*,#547,.T.);
#700=ORIENTED_EDGE('',*,*,#548,.F.);
#701=ORIENTED_EDGE('',*,*,#549,.F.);
#702=ORIENTED_EDGE('',*,*,#550,.T.);
#703=ORIENTED_EDGE('',*,*,#551,.F.);
#704=ORIENTED_EDGE('',*,*,#542,.F.);
#705=ORIENTED_EDGE('',*,*,#552,.F.);
#706=ORIENTED_EDGE('',*,*,#540,.T.);
#707=ORIENTED_EDGE('',*,*,#553,.F.);
#708=ORIENTED_EDGE('',*,*,#554,.F.);
#709=ORIENTED_EDGE('',*,*,#555,.F.);
#710=ORIENTED_EDGE('',*,*,#554,.T.);
#711=ORIENTED_EDGE('',*,*,#556,.F.);
#712=ORIENTED_EDGE('',*,*,#550,.F.);
#713=ORIENTED_EDGE('',*,*,#532,.T.);
#714=ORIENTED_EDGE('',*,*,#543,.T.);
#715=ORIENTED_EDGE('',*,*,#551,.T.);
#716=ORIENTED_EDGE('',*,*,#556,.T.);
#717=ORIENTED_EDGE('',*,*,#553,.T.);
#718=ORIENTED_EDGE('',*,*,#539,.T.);
#719=ORIENTED_EDGE('',*,*,#537,.T.);
#720=ORIENTED_EDGE('',*,*,#548,.T.);
#721=ORIENTED_EDGE('',*,*,#557,.T.);
#722=ORIENTED_EDGE('',*,*,#558,.T.);
#723=ORIENTED_EDGE('',*,*,#559,.T.);
#724=ORIENTED_EDGE('',*,*,#544,.T.);
#725=ORIENTED_EDGE('',*,*,#560,.T.);
#726=ORIENTED_EDGE('',*,*,#561,.T.);
#727=ORIENTED_EDGE('',*,*,#562,.T.);
#728=ORIENTED_EDGE('',*,*,#563,.T.);
#729=ORIENTED_EDGE('',*,*,#560,.F.);
#730=ORIENTED_EDGE('',*,*,#564,.T.);
#731=ORIENTED_EDGE('',*,*,#565,.T.);
#732=ORIENTED_EDGE('',*,*,#564,.F.);
#733=ORIENTED_EDGE('',*,*,#561,.F.);
#734=ORIENTED_EDGE('',*,*,#566,.T.);
#735=ORIENTED_EDGE('',*,*,#567,.T.);
#736=ORIENTED_EDGE('',*,*,#566,.F.);
#737=ORIENTED_EDGE('',*,*,#563,.F.);
#738=ORIENTED_EDGE('',*,*,#568,.T.);
#739=ORIENTED_EDGE('',*,*,#569,.T.);
#740=ORIENTED_EDGE('',*,*,#568,.F.);
#741=ORIENTED_EDGE('',*,*,#562,.F.);
#742=ORIENTED_EDGE('',*,*,#570,.T.);
#743=ORIENTED_EDGE('',*,*,#571,.T.);
#744=ORIENTED_EDGE('',*,*,#570,.F.);
#745=ORIENTED_EDGE('',*,*,#572,.T.);
#746=ORIENTED_EDGE('',*,*,#573,.T.);
#747=ORIENTED_EDGE('',*,*,#557,.F.);
#748=ORIENTED_EDGE('',*,*,#547,.F.);
#749=ORIENTED_EDGE('',*,*,#574,.T.);
#750=ORIENTED_EDGE('',*,*,#545,.T.);
#751=ORIENTED_EDGE('',*,*,#559,.F.);
#752=ORIENTED_EDGE('',*,*,#575,.F.);
#753=ORIENTED_EDGE('',*,*,#576,.T.);
#754=ORIENTED_EDGE('',*,*,#575,.T.);
#755=ORIENTED_EDGE('',*,*,#558,.F.);
#756=ORIENTED_EDGE('',*,*,#573,.F.);
#757=ORIENTED_EDGE('',*,*,#549,.T.);
#758=ORIENTED_EDGE('',*,*,#541,.T.);
#759=ORIENTED_EDGE('',*,*,#552,.T.);
#760=ORIENTED_EDGE('',*,*,#555,.T.);
#761=ORIENTED_EDGE('',*,*,#576,.F.);
#762=ORIENTED_EDGE('',*,*,#572,.F.);
#763=ORIENTED_EDGE('',*,*,#546,.F.);
#764=ORIENTED_EDGE('',*,*,#574,.F.);
#765=ORIENTED_EDGE('',*,*,#571,.F.);
#766=ORIENTED_EDGE('',*,*,#569,.F.);
#767=ORIENTED_EDGE('',*,*,#567,.F.);
#768=ORIENTED_EDGE('',*,*,#565,.F.);
#769=ORIENTED_EDGE('',*,*,#577,.F.);
#770=ORIENTED_EDGE('',*,*,#578,.T.);
#771=ORIENTED_EDGE('',*,*,#579,.T.);
#772=ORIENTED_EDGE('',*,*,#578,.F.);
#773=ORIENTED_EDGE('',*,*,#580,.F.);
#774=ORIENTED_EDGE('',*,*,#581,.T.);
#775=ORIENTED_EDGE('',*,*,#582,.T.);
#776=ORIENTED_EDGE('',*,*,#581,.F.);
#777=ORIENTED_EDGE('',*,*,#583,.F.);
#778=ORIENTED_EDGE('',*,*,#584,.T.);
#779=ORIENTED_EDGE('',*,*,#585,.T.);
#780=ORIENTED_EDGE('',*,*,#584,.F.);
#781=ORIENTED_EDGE('',*,*,#586,.F.);
#782=ORIENTED_EDGE('',*,*,#587,.T.);
#783=ORIENTED_EDGE('',*,*,#588,.T.);
#784=ORIENTED_EDGE('',*,*,#587,.F.);
#785=ORIENTED_EDGE('',*,*,#589,.T.);
#786=ORIENTED_EDGE('',*,*,#590,.T.);
#787=ORIENTED_EDGE('',*,*,#591,.F.);
#788=ORIENTED_EDGE('',*,*,#592,.F.);
#789=ORIENTED_EDGE('',*,*,#593,.T.);
#790=ORIENTED_EDGE('',*,*,#592,.T.);
#791=ORIENTED_EDGE('',*,*,#594,.F.);
#792=ORIENTED_EDGE('',*,*,#595,.F.);
#793=ORIENTED_EDGE('',*,*,#596,.T.);
#794=ORIENTED_EDGE('',*,*,#595,.T.);
#795=ORIENTED_EDGE('',*,*,#597,.F.);
#796=ORIENTED_EDGE('',*,*,#598,.F.);
#797=ORIENTED_EDGE('',*,*,#599,.T.);
#798=ORIENTED_EDGE('',*,*,#598,.T.);
#799=ORIENTED_EDGE('',*,*,#600,.F.);
#800=ORIENTED_EDGE('',*,*,#590,.F.);
#801=ORIENTED_EDGE('',*,*,#601,.T.);
#802=ORIENTED_EDGE('',*,*,#602,.T.);
#803=ORIENTED_EDGE('',*,*,#603,.F.);
#804=ORIENTED_EDGE('',*,*,#604,.F.);
#805=ORIENTED_EDGE('',*,*,#605,.T.);
#806=ORIENTED_EDGE('',*,*,#604,.T.);
#807=ORIENTED_EDGE('',*,*,#606,.F.);
#808=ORIENTED_EDGE('',*,*,#607,.F.);
#809=ORIENTED_EDGE('',*,*,#608,.T.);
#810=ORIENTED_EDGE('',*,*,#607,.T.);
#811=ORIENTED_EDGE('',*,*,#609,.F.);
#812=ORIENTED_EDGE('',*,*,#610,.F.);
#813=ORIENTED_EDGE('',*,*,#611,.T.);
#814=ORIENTED_EDGE('',*,*,#610,.T.);
#815=ORIENTED_EDGE('',*,*,#612,.F.);
#816=ORIENTED_EDGE('',*,*,#613,.F.);
#817=ORIENTED_EDGE('',*,*,#614,.T.);
#818=ORIENTED_EDGE('',*,*,#613,.T.);
#819=ORIENTED_EDGE('',*,*,#615,.F.);
#820=ORIENTED_EDGE('',*,*,#616,.F.);
#821=ORIENTED_EDGE('',*,*,#617,.T.);
#822=ORIENTED_EDGE('',*,*,#616,.T.);
#823=ORIENTED_EDGE('',*,*,#618,.F.);
#824=ORIENTED_EDGE('',*,*,#619,.F.);
#825=ORIENTED_EDGE('',*,*,#620,.T.);
#826=ORIENTED_EDGE('',*,*,#619,.T.);
#827=ORIENTED_EDGE('',*,*,#621,.F.);
#828=ORIENTED_EDGE('',*,*,#622,.F.);
#829=ORIENTED_EDGE('',*,*,#623,.T.);
#830=ORIENTED_EDGE('',*,*,#622,.T.);
#831=ORIENTED_EDGE('',*,*,#624,.F.);
#832=ORIENTED_EDGE('',*,*,#602,.F.);
#833=ORIENTED_EDGE('',*,*,#625,.T.);
#834=ORIENTED_EDGE('',*,*,#626,.T.);
#835=ORIENTED_EDGE('',*,*,#627,.F.);
#836=ORIENTED_EDGE('',*,*,#628,.F.);
#837=ORIENTED_EDGE('',*,*,#629,.T.);
#838=ORIENTED_EDGE('',*,*,#628,.T.);
#839=ORIENTED_EDGE('',*,*,#630,.F.);
#840=ORIENTED_EDGE('',*,*,#631,.F.);
#841=ORIENTED_EDGE('',*,*,#632,.T.);
#842=ORIENTED_EDGE('',*,*,#631,.T.);
#843=ORIENTED_EDGE('',*,*,#633,.F.);
#844=ORIENTED_EDGE('',*,*,#634,.F.);
#845=ORIENTED_EDGE('',*,*,#635,.T.);
#846=ORIENTED_EDGE('',*,*,#634,.T.);
#847=ORIENTED_EDGE('',*,*,#636,.F.);
#848=ORIENTED_EDGE('',*,*,#637,.F.);
#849=ORIENTED_EDGE('',*,*,#638,.T.);
#850=ORIENTED_EDGE('',*,*,#637,.T.);
#851=ORIENTED_EDGE('',*,*,#639,.F.);
#852=ORIENTED_EDGE('',*,*,#640,.F.);
#853=ORIENTED_EDGE('',*,*,#641,.T.);
#854=ORIENTED_EDGE('',*,*,#640,.T.);
#855=ORIENTED_EDGE('',*,*,#642,.F.);
#856=ORIENTED_EDGE('',*,*,#643,.F.);
#857=ORIENTED_EDGE('',*,*,#644,.T.);
#858=ORIENTED_EDGE('',*,*,#643,.T.);
#859=ORIENTED_EDGE('',*,*,#645,.F.);
#860=ORIENTED_EDGE('',*,*,#646,.F.);
#861=ORIENTED_EDGE('',*,*,#647,.T.);
#862=ORIENTED_EDGE('',*,*,#646,.T.);
#863=ORIENTED_EDGE('',*,*,#648,.F.);
#864=ORIENTED_EDGE('',*,*,#626,.F.);
#865=ORIENTED_EDGE('',*,*,#649,.T.);
#866=ORIENTED_EDGE('',*,*,#650,.T.);
#867=ORIENTED_EDGE('',*,*,#651,.F.);
#868=ORIENTED_EDGE('',*,*,#652,.F.);
#869=ORIENTED_EDGE('',*,*,#653,.T.);
#870=ORIENTED_EDGE('',*,*,#652,.T.);
#871=ORIENTED_EDGE('',*,*,#654,.F.);
#872=ORIENTED_EDGE('',*,*,#655,.F.);
#873=ORIENTED_EDGE('',*,*,#656,.T.);
#874=ORIENTED_EDGE('',*,*,#655,.T.);
#875=ORIENTED_EDGE('',*,*,#657,.F.);
#876=ORIENTED_EDGE('',*,*,#658,.F.);
#877=ORIENTED_EDGE('',*,*,#659,.T.);
#878=ORIENTED_EDGE('',*,*,#658,.T.);
#879=ORIENTED_EDGE('',*,*,#660,.F.);
#880=ORIENTED_EDGE('',*,*,#661,.F.);
#881=ORIENTED_EDGE('',*,*,#662,.T.);
#882=ORIENTED_EDGE('',*,*,#661,.T.);
#883=ORIENTED_EDGE('',*,*,#663,.F.);
#884=ORIENTED_EDGE('',*,*,#664,.F.);
#885=ORIENTED_EDGE('',*,*,#665,.T.);
#886=ORIENTED_EDGE('',*,*,#664,.T.);
#887=ORIENTED_EDGE('',*,*,#666,.F.);
#888=ORIENTED_EDGE('',*,*,#667,.F.);
#889=ORIENTED_EDGE('',*,*,#668,.T.);
#890=ORIENTED_EDGE('',*,*,#667,.T.);
#891=ORIENTED_EDGE('',*,*,#669,.F.);
#892=ORIENTED_EDGE('',*,*,#670,.F.);
#893=ORIENTED_EDGE('',*,*,#671,.T.);
#894=ORIENTED_EDGE('',*,*,#670,.T.);
#895=ORIENTED_EDGE('',*,*,#672,.F.);
#896=ORIENTED_EDGE('',*,*,#650,.F.);
#897=ORIENTED_EDGE('',*,*,#600,.T.);
#898=ORIENTED_EDGE('',*,*,#597,.T.);
#899=ORIENTED_EDGE('',*,*,#594,.T.);
#900=ORIENTED_EDGE('',*,*,#591,.T.);
#901=ORIENTED_EDGE('',*,*,#586,.T.);
#902=ORIENTED_EDGE('',*,*,#583,.T.);
#903=ORIENTED_EDGE('',*,*,#580,.T.);
#904=ORIENTED_EDGE('',*,*,#577,.T.);
#905=ORIENTED_EDGE('',*,*,#672,.T.);
#906=ORIENTED_EDGE('',*,*,#669,.T.);
#907=ORIENTED_EDGE('',*,*,#666,.T.);
#908=ORIENTED_EDGE('',*,*,#663,.T.);
#909=ORIENTED_EDGE('',*,*,#660,.T.);
#910=ORIENTED_EDGE('',*,*,#657,.T.);
#911=ORIENTED_EDGE('',*,*,#654,.T.);
#912=ORIENTED_EDGE('',*,*,#651,.T.);
#913=ORIENTED_EDGE('',*,*,#648,.T.);
#914=ORIENTED_EDGE('',*,*,#645,.T.);
#915=ORIENTED_EDGE('',*,*,#642,.T.);
#916=ORIENTED_EDGE('',*,*,#639,.T.);
#917=ORIENTED_EDGE('',*,*,#636,.T.);
#918=ORIENTED_EDGE('',*,*,#633,.T.);
#919=ORIENTED_EDGE('',*,*,#630,.T.);
#920=ORIENTED_EDGE('',*,*,#627,.T.);
#921=ORIENTED_EDGE('',*,*,#624,.T.);
#922=ORIENTED_EDGE('',*,*,#621,.T.);
#923=ORIENTED_EDGE('',*,*,#618,.T.);
#924=ORIENTED_EDGE('',*,*,#615,.T.);
#925=ORIENTED_EDGE('',*,*,#612,.T.);
#926=ORIENTED_EDGE('',*,*,#609,.T.);
#927=ORIENTED_EDGE('',*,*,#606,.T.);
#928=ORIENTED_EDGE('',*,*,#603,.T.);
#929=ORIENTED_EDGE('',*,*,#599,.F.);
#930=ORIENTED_EDGE('',*,*,#589,.F.);
#931=ORIENTED_EDGE('',*,*,#593,.F.);
#932=ORIENTED_EDGE('',*,*,#596,.F.);
#933=ORIENTED_EDGE('',*,*,#588,.F.);
#934=ORIENTED_EDGE('',*,*,#585,.F.);
#935=ORIENTED_EDGE('',*,*,#582,.F.);
#936=ORIENTED_EDGE('',*,*,#579,.F.);
#937=ORIENTED_EDGE('',*,*,#671,.F.);
#938=ORIENTED_EDGE('',*,*,#649,.F.);
#939=ORIENTED_EDGE('',*,*,#653,.F.);
#940=ORIENTED_EDGE('',*,*,#656,.F.);
#941=ORIENTED_EDGE('',*,*,#659,.F.);
#942=ORIENTED_EDGE('',*,*,#662,.F.);
#943=ORIENTED_EDGE('',*,*,#665,.F.);
#944=ORIENTED_EDGE('',*,*,#668,.F.);
#945=ORIENTED_EDGE('',*,*,#647,.F.);
#946=ORIENTED_EDGE('',*,*,#625,.F.);
#947=ORIENTED_EDGE('',*,*,#629,.F.);
#948=ORIENTED_EDGE('',*,*,#632,.F.);
#949=ORIENTED_EDGE('',*,*,#635,.F.);
#950=ORIENTED_EDGE('',*,*,#638,.F.);
#951=ORIENTED_EDGE('',*,*,#641,.F.);
#952=ORIENTED_EDGE('',*,*,#644,.F.);
#953=ORIENTED_EDGE('',*,*,#623,.F.);
#954=ORIENTED_EDGE('',*,*,#601,.F.);
#955=ORIENTED_EDGE('',*,*,#605,.F.);
#956=ORIENTED_EDGE('',*,*,#608,.F.);
#957=ORIENTED_EDGE('',*,*,#611,.F.);
#958=ORIENTED_EDGE('',*,*,#614,.F.);
#959=ORIENTED_EDGE('',*,*,#617,.F.);
#960=ORIENTED_EDGE('',*,*,#620,.F.);
#961=PLANE('',#1060);
#962=PLANE('',#1061);
#963=PLANE('',#1062);
#964=PLANE('',#1063);
#965=PLANE('',#1064);
#966=PLANE('',#1065);
#967=PLANE('',#1066);
#968=PLANE('',#1067);
#969=PLANE('',#1068);
#970=PLANE('',#1081);
#971=PLANE('',#1082);
#972=PLANE('',#1083);
#973=PLANE('',#1084);
#974=PLANE('',#1085);
#975=PLANE('',#1098);
#976=PLANE('',#1099);
#977=PLANE('',#1100);
#978=PLANE('',#1101);
#979=PLANE('',#1102);
#980=PLANE('',#1106);
#981=PLANE('',#1110);
#982=PLANE('',#1114);
#983=PLANE('',#1118);
#984=PLANE('',#1122);
#985=PLANE('',#1126);
#986=PLANE('',#1130);
#987=PLANE('',#1134);
#988=PLANE('',#1138);
#989=PLANE('',#1142);
#990=PLANE('',#1146);
#991=PLANE('',#1150);
#992=PLANE('',#1151);
#993=ADVANCED_FACE('',(#99),#961,.F.);
#994=ADVANCED_FACE('',(#100),#962,.F.);
#995=ADVANCED_FACE('',(#101),#963,.F.);
#996=ADVANCED_FACE('',(#102),#964,.T.);
#997=ADVANCED_FACE('',(#103),#965,.T.);
#998=ADVANCED_FACE('',(#104),#966,.T.);
#999=ADVANCED_FACE('',(#105),#967,.T.);
#1000=ADVANCED_FACE('',(#106),#968,.T.);
#1001=ADVANCED_FACE('',(#107,#37,#38,#39,#40),#969,.T.);
#1002=ADVANCED_FACE('',(#108),#17,.F.);
#1003=ADVANCED_FACE('',(#109),#18,.F.);
#1004=ADVANCED_FACE('',(#110),#19,.F.);
#1005=ADVANCED_FACE('',(#111),#20,.F.);
#1006=ADVANCED_FACE('',(#112),#970,.T.);
#1007=ADVANCED_FACE('',(#113),#971,.T.);
#1008=ADVANCED_FACE('',(#114),#972,.T.);
#1009=ADVANCED_FACE('',(#115),#973,.T.);
#1010=ADVANCED_FACE('',(#116,#41,#42,#43,#44),#974,.F.);
#1011=ADVANCED_FACE('',(#117),#21,.F.);
#1012=ADVANCED_FACE('',(#118),#22,.F.);
#1013=ADVANCED_FACE('',(#119),#23,.F.);
#1014=ADVANCED_FACE('',(#120),#24,.F.);
#1015=ADVANCED_FACE('',(#121),#975,.T.);
#1016=ADVANCED_FACE('',(#122),#976,.T.);
#1017=ADVANCED_FACE('',(#123),#977,.T.);
#1018=ADVANCED_FACE('',(#124),#978,.T.);
#1019=ADVANCED_FACE('',(#125),#979,.T.);
#1020=ADVANCED_FACE('',(#126),#25,.F.);
#1021=ADVANCED_FACE('',(#127),#980,.T.);
#1022=ADVANCED_FACE('',(#128),#26,.F.);
#1023=ADVANCED_FACE('',(#129),#981,.T.);
#1024=ADVANCED_FACE('',(#130),#27,.F.);
#1025=ADVANCED_FACE('',(#131),#982,.T.);
#1026=ADVANCED_FACE('',(#132),#28,.F.);
#1027=ADVANCED_FACE('',(#133),#983,.T.);
#1028=ADVANCED_FACE('',(#134),#29,.F.);
#1029=ADVANCED_FACE('',(#135),#984,.T.);
#1030=ADVANCED_FACE('',(#136),#30,.F.);
#1031=ADVANCED_FACE('',(#137),#985,.T.);
#1032=ADVANCED_FACE('',(#138),#31,.F.);
#1033=ADVANCED_FACE('',(#139),#986,.T.);
#1034=ADVANCED_FACE('',(#140),#32,.F.);
#1035=ADVANCED_FACE('',(#141),#987,.T.);
#1036=ADVANCED_FACE('',(#142),#33,.F.);
#1037=ADVANCED_FACE('',(#143),#988,.T.);
#1038=ADVANCED_FACE('',(#144),#34,.F.);
#1039=ADVANCED_FACE('',(#145),#989,.T.);
#1040=ADVANCED_FACE('',(#146),#35,.F.);
#1041=ADVANCED_FACE('',(#147),#990,.T.);
#1042=ADVANCED_FACE('',(#148),#36,.F.);
#1043=ADVANCED_FACE('',(#149,#45,#46,#47,#48,#49,#50,#51),#991,.T.);
#1044=ADVANCED_FACE('',(#150,#52,#53,#54,#55,#56,#57,#58),#992,.F.);
#1045=CLOSED_SHELL('',(#993,#994,#995,#996,#997,#998,#999,#1000,#1001,#1002,
#1003,#1004,#1005,#1006,#1007,#1008,#1009,#1010));
#1046=CLOSED_SHELL('',(#1011,#1012,#1013,#1014,#1015,#1016,#1017,#1018,
#1019,#1020,#1021,#1022,#1023,#1024,#1025,#1026,#1027,#1028,#1029,#1030,
#1031,#1032,#1033,#1034,#1035,#1036,#1037,#1038,#1039,#1040,#1041,#1042,
#1043,#1044));
#1047=DERIVED_UNIT_ELEMENT(#1049,1.);
#1048=DERIVED_UNIT_ELEMENT(#1740,-3.);
#1049=(
MASS_UNIT()
NAMED_UNIT(*)
SI_UNIT(.KILO.,.GRAM.)
);
#1050=DERIVED_UNIT((#1047,#1048));
#1051=MEASURE_REPRESENTATION_ITEM('density measure',
POSITIVE_RATIO_MEASURE(7850.),#1050);
#1052=PROPERTY_DEFINITION_REPRESENTATION(#1057,#1054);
#1053=PROPERTY_DEFINITION_REPRESENTATION(#1058,#1055);
#1054=REPRESENTATION('material name',(#1056),#1737);
#1055=REPRESENTATION('density',(#1051),#1737);
#1056=DESCRIPTIVE_REPRESENTATION_ITEM('Steel','Steel');
#1057=PROPERTY_DEFINITION('material property','material name',#1747);
#1058=PROPERTY_DEFINITION('material property','density of part',#1747);
#1059=AXIS2_PLACEMENT_3D('',#1442,#1152,#1153);
#1060=AXIS2_PLACEMENT_3D('',#1443,#1154,#1155);
#1061=AXIS2_PLACEMENT_3D('',#1452,#1160,#1161);
#1062=AXIS2_PLACEMENT_3D('',#1458,#1165,#1166);
#1063=AXIS2_PLACEMENT_3D('',#1464,#1170,#1171);
#1064=AXIS2_PLACEMENT_3D('',#1474,#1177,#1178);
#1065=AXIS2_PLACEMENT_3D('',#1484,#1184,#1185);
#1066=AXIS2_PLACEMENT_3D('',#1490,#1189,#1190);
#1067=AXIS2_PLACEMENT_3D('',#1496,#1194,#1195);
#1068=AXIS2_PLACEMENT_3D('',#1499,#1198,#1199);
#1069=AXIS2_PLACEMENT_3D('',#1506,#1203,#1204);
#1070=AXIS2_PLACEMENT_3D('',#1508,#1205,#1206);
#1071=AXIS2_PLACEMENT_3D('',#1510,#1207,#1208);
#1072=AXIS2_PLACEMENT_3D('',#1512,#1209,#1210);
#1073=AXIS2_PLACEMENT_3D('',#1513,#1211,#1212);
#1074=AXIS2_PLACEMENT_3D('',#1516,#1214,#1215);
#1075=AXIS2_PLACEMENT_3D('',#1517,#1216,#1217);
#1076=AXIS2_PLACEMENT_3D('',#1520,#1219,#1220);
#1077=AXIS2_PLACEMENT_3D('',#1521,#1221,#1222);
#1078=AXIS2_PLACEMENT_3D('',#1524,#1224,#1225);
#1079=AXIS2_PLACEMENT_3D('',#1525,#1226,#1227);
#1080=AXIS2_PLACEMENT_3D('',#1528,#1229,#1230);
#1081=AXIS2_PLACEMENT_3D('',#1529,#1231,#1232);
#1082=AXIS2_PLACEMENT_3D('',#1533,#1235,#1236);
#1083=AXIS2_PLACEMENT_3D('',#1537,#1239,#1240);
#1084=AXIS2_PLACEMENT_3D('',#1539,#1242,#1243);
#1085=AXIS2_PLACEMENT_3D('',#1540,#1244,#1245);
#1086=AXIS2_PLACEMENT_3D('',#1541,#1246,#1247);
#1087=AXIS2_PLACEMENT_3D('',#1543,#1248,#1249);
#1088=AXIS2_PLACEMENT_3D('',#1546,#1251,#1252);
#1089=AXIS2_PLACEMENT_3D('',#1547,#1253,#1254);
#1090=AXIS2_PLACEMENT_3D('',#1549,#1255,#1256);
#1091=AXIS2_PLACEMENT_3D('',#1552,#1258,#1259);
#1092=AXIS2_PLACEMENT_3D('',#1553,#1260,#1261);
#1093=AXIS2_PLACEMENT_3D('',#1555,#1262,#1263);
#1094=AXIS2_PLACEMENT_3D('',#1558,#1265,#1266);
#1095=AXIS2_PLACEMENT_3D('',#1559,#1267,#1268);
#1096=AXIS2_PLACEMENT_3D('',#1561,#1269,#1270);
#1097=AXIS2_PLACEMENT_3D('',#1564,#1272,#1273);
#1098=AXIS2_PLACEMENT_3D('',#1565,#1274,#1275);
#1099=AXIS2_PLACEMENT_3D('',#1574,#1280,#1281);
#1100=AXIS2_PLACEMENT_3D('',#1580,#1285,#1286);
#1101=AXIS2_PLACEMENT_3D('',#1586,#1290,#1291);
#1102=AXIS2_PLACEMENT_3D('',#1589,#1294,#1295);
#1103=AXIS2_PLACEMENT_3D('',#1598,#1300,#1301);
#1104=AXIS2_PLACEMENT_3D('',#1600,#1302,#1303);
#1105=AXIS2_PLACEMENT_3D('',#1602,#1304,#1305);
#1106=AXIS2_PLACEMENT_3D('',#1604,#1307,#1308);
#1107=AXIS2_PLACEMENT_3D('',#1610,#1312,#1313);
#1108=AXIS2_PLACEMENT_3D('',#1612,#1314,#1315);
#1109=AXIS2_PLACEMENT_3D('',#1614,#1316,#1317);
#1110=AXIS2_PLACEMENT_3D('',#1616,#1319,#1320);
#1111=AXIS2_PLACEMENT_3D('',#1622,#1324,#1325);
#1112=AXIS2_PLACEMENT_3D('',#1624,#1326,#1327);
#1113=AXIS2_PLACEMENT_3D('',#1626,#1328,#1329);
#1114=AXIS2_PLACEMENT_3D('',#1628,#1331,#1332);
#1115=AXIS2_PLACEMENT_3D('',#1634,#1336,#1337);
#1116=AXIS2_PLACEMENT_3D('',#1635,#1338,#1339);
#1117=AXIS2_PLACEMENT_3D('',#1636,#1340,#1341);
#1118=AXIS2_PLACEMENT_3D('',#1637,#1342,#1343);
#1119=AXIS2_PLACEMENT_3D('',#1646,#1348,#1349);
#1120=AXIS2_PLACEMENT_3D('',#1648,#1350,#1351);
#1121=AXIS2_PLACEMENT_3D('',#1650,#1352,#1353);
#1122=AXIS2_PLACEMENT_3D('',#1652,#1355,#1356);
#1123=AXIS2_PLACEMENT_3D('',#1658,#1360,#1361);
#1124=AXIS2_PLACEMENT_3D('',#1660,#1362,#1363);
#1125=AXIS2_PLACEMENT_3D('',#1662,#1364,#1365);
#1126=AXIS2_PLACEMENT_3D('',#1664,#1367,#1368);
#1127=AXIS2_PLACEMENT_3D('',#1670,#1372,#1373);
#1128=AXIS2_PLACEMENT_3D('',#1672,#1374,#1375);
#1129=AXIS2_PLACEMENT_3D('',#1674,#1376,#1377);
#1130=AXIS2_PLACEMENT_3D('',#1676,#1379,#1380);
#1131=AXIS2_PLACEMENT_3D('',#1682,#1384,#1385);
#1132=AXIS2_PLACEMENT_3D('',#1683,#1386,#1387);
#1133=AXIS2_PLACEMENT_3D('',#1684,#1388,#1389);
#1134=AXIS2_PLACEMENT_3D('',#1685,#1390,#1391);
#1135=AXIS2_PLACEMENT_3D('',#1694,#1396,#1397);
#1136=AXIS2_PLACEMENT_3D('',#1696,#1398,#1399);
#1137=AXIS2_PLACEMENT_3D('',#1698,#1400,#1401);
#1138=AXIS2_PLACEMENT_3D('',#1700,#1403,#1404);
#1139=AXIS2_PLACEMENT_3D('',#1706,#1408,#1409);
#1140=AXIS2_PLACEMENT_3D('',#1708,#1410,#1411);
#1141=AXIS2_PLACEMENT_3D('',#1710,#1412,#1413);
#1142=AXIS2_PLACEMENT_3D('',#1712,#1415,#1416);
#1143=AXIS2_PLACEMENT_3D('',#1718,#1420,#1421);
#1144=AXIS2_PLACEMENT_3D('',#1720,#1422,#1423);
#1145=AXIS2_PLACEMENT_3D('',#1722,#1424,#1425);
#1146=AXIS2_PLACEMENT_3D('',#1724,#1427,#1428);
#1147=AXIS2_PLACEMENT_3D('',#1730,#1432,#1433);
#1148=AXIS2_PLACEMENT_3D('',#1731,#1434,#1435);
#1149=AXIS2_PLACEMENT_3D('',#1732,#1436,#1437);
#1150=AXIS2_PLACEMENT_3D('',#1733,#1438,#1439);
#1151=AXIS2_PLACEMENT_3D('',#1734,#1440,#1441);
#1152=DIRECTION('axis',(0.,0.,1.));
#1153=DIRECTION('refdir',(1.,0.,0.));
#1154=DIRECTION('center_axis',(0.,-1.,0.));
#1155=DIRECTION('ref_axis',(0.,0.,1.));
#1156=DIRECTION('',(0.,0.,1.));
#1157=DIRECTION('',(-1.,0.,0.));
#1158=DIRECTION('',(0.,0.,-1.));
#1159=DIRECTION('',(-1.,0.,0.));
#1160=DIRECTION('center_axis',(0.,0.,-1.));
#1161=DIRECTION('ref_axis',(0.,-1.,0.));
#1162=DIRECTION('',(0.,-1.,0.));
#1163=DIRECTION('',(-1.,0.,0.));
#1164=DIRECTION('',(0.,1.,0.));
#1165=DIRECTION('center_axis',(0.,1.,0.));
#1166=DIRECTION('ref_axis',(0.,0.,-1.));
#1167=DIRECTION('',(0.,0.,-1.));
#1168=DIRECTION('',(1.,0.,0.));
#1169=DIRECTION('',(0.,0.,1.));
#1170=DIRECTION('center_axis',(-1.,0.,0.));
#1171=DIRECTION('ref_axis',(0.,-1.,0.));
#1172=DIRECTION('',(0.,-1.,0.));
#1173=DIRECTION('',(0.,0.,1.));
#1174=DIRECTION('',(0.,1.,0.));
#1175=DIRECTION('',(0.,0.,1.));
#1176=DIRECTION('',(0.,-1.,0.));
#1177=DIRECTION('center_axis',(1.,0.,0.));
#1178=DIRECTION('ref_axis',(0.,1.,0.));
#1179=DIRECTION('',(0.,1.,0.));
#1180=DIRECTION('',(0.,0.,1.));
#1181=DIRECTION('',(0.,1.,0.));
#1182=DIRECTION('',(0.,0.,1.));
#1183=DIRECTION('',(0.,1.,0.));
#1184=DIRECTION('center_axis',(0.,1.,0.));
#1185=DIRECTION('ref_axis',(-1.,0.,0.));
#1186=DIRECTION('',(1.,0.,0.));
#1187=DIRECTION('',(0.,0.,1.));
#1188=DIRECTION('',(-1.,0.,0.));
#1189=DIRECTION('center_axis',(3.80213364597656E-17,-1.,0.));
#1190=DIRECTION('ref_axis',(1.,3.80213364597656E-17,0.));
#1191=DIRECTION('',(-1.,-3.80213364597656E-17,0.));
#1192=DIRECTION('',(1.,3.80213364597656E-17,0.));
#1193=DIRECTION('',(0.,0.,1.));
#1194=DIRECTION('center_axis',(1.,0.,0.));
#1195=DIRECTION('ref_axis',(0.,1.,0.));
#1196=DIRECTION('',(0.,-1.,0.));
#1197=DIRECTION('',(0.,1.,0.));
#1198=DIRECTION('center_axis',(0.,0.,1.));
#1199=DIRECTION('ref_axis',(1.,0.,0.));
#1200=DIRECTION('',(-1.,0.,0.));
#1201=DIRECTION('',(0.,-1.,0.));
#1202=DIRECTION('',(1.,0.,0.));
#1203=DIRECTION('center_axis',(0.,0.,-1.));
#1204=DIRECTION('ref_axis',(1.,0.,0.));
#1205=DIRECTION('center_axis',(0.,0.,-1.));
#1206=DIRECTION('ref_axis',(1.,0.,0.));
#1207=DIRECTION('center_axis',(0.,0.,-1.));
#1208=DIRECTION('ref_axis',(1.,0.,0.));
#1209=DIRECTION('center_axis',(0.,0.,-1.));
#1210=DIRECTION('ref_axis',(1.,0.,0.));
#1211=DIRECTION('center_axis',(0.,0.,1.));
#1212=DIRECTION('ref_axis',(1.,0.,0.));
#1213=DIRECTION('',(0.,0.,-1.));
#1214=DIRECTION('center_axis',(0.,0.,-1.));
#1215=DIRECTION('ref_axis',(1.,0.,0.));
#1216=DIRECTION('center_axis',(0.,0.,1.));
#1217=DIRECTION('ref_axis',(1.,0.,0.));
#1218=DIRECTION('',(0.,0.,-1.));
#1219=DIRECTION('center_axis',(0.,0.,-1.));
#1220=DIRECTION('ref_axis',(1.,0.,0.));
#1221=DIRECTION('center_axis',(0.,0.,1.));
#1222=DIRECTION('ref_axis',(1.,0.,0.));
#1223=DIRECTION('',(0.,0.,-1.));
#1224=DIRECTION('center_axis',(0.,0.,-1.));
#1225=DIRECTION('ref_axis',(1.,0.,0.));
#1226=DIRECTION('center_axis',(0.,0.,1.));
#1227=DIRECTION('ref_axis',(1.,0.,0.));
#1228=DIRECTION('',(0.,0.,-1.));
#1229=DIRECTION('center_axis',(0.,0.,-1.));
#1230=DIRECTION('ref_axis',(1.,0.,0.));
#1231=DIRECTION('center_axis',(0.,1.,0.));
#1232=DIRECTION('ref_axis',(-1.,0.,0.));
#1233=DIRECTION('',(-1.,0.,0.));
#1234=DIRECTION('',(0.,0.,1.));
#1235=DIRECTION('center_axis',(0.,-1.,0.));
#1236=DIRECTION('ref_axis',(1.,0.,0.));
#1237=DIRECTION('',(1.,0.,0.));
#1238=DIRECTION('',(0.,0.,1.));
#1239=DIRECTION('center_axis',(-1.,0.,0.));
#1240=DIRECTION('ref_axis',(0.,-1.,0.));
#1241=DIRECTION('',(0.,-1.,0.));
#1242=DIRECTION('center_axis',(0.,0.,1.));
#1243=DIRECTION('ref_axis',(1.,0.,0.));
#1244=DIRECTION('center_axis',(0.,0.,1.));
#1245=DIRECTION('ref_axis',(1.,0.,0.));
#1246=DIRECTION('center_axis',(0.,0.,1.));
#1247=DIRECTION('ref_axis',(1.,0.,0.));
#1248=DIRECTION('center_axis',(0.,0.,-1.));
#1249=DIRECTION('ref_axis',(1.,0.,0.));
#1250=DIRECTION('',(0.,0.,-1.));
#1251=DIRECTION('center_axis',(0.,0.,-1.));
#1252=DIRECTION('ref_axis',(1.,0.,0.));
#1253=DIRECTION('center_axis',(0.,0.,1.));
#1254=DIRECTION('ref_axis',(1.,0.,0.));
#1255=DIRECTION('center_axis',(0.,0.,-1.));
#1256=DIRECTION('ref_axis',(1.,0.,0.));
#1257=DIRECTION('',(0.,0.,-1.));
#1258=DIRECTION('center_axis',(0.,0.,-1.));
#1259=DIRECTION('ref_axis',(1.,0.,0.));
#1260=DIRECTION('center_axis',(0.,0.,1.));
#1261=DIRECTION('ref_axis',(1.,0.,0.));
#1262=DIRECTION('center_axis',(0.,0.,-1.));
#1263=DIRECTION('ref_axis',(1.,0.,0.));
#1264=DIRECTION('',(0.,0.,-1.));
#1265=DIRECTION('center_axis',(0.,0.,-1.));
#1266=DIRECTION('ref_axis',(1.,0.,0.));
#1267=DIRECTION('center_axis',(0.,0.,1.));
#1268=DIRECTION('ref_axis',(1.,0.,0.));
#1269=DIRECTION('center_axis',(0.,0.,-1.));
#1270=DIRECTION('ref_axis',(1.,0.,0.));
#1271=DIRECTION('',(0.,0.,-1.));
#1272=DIRECTION('center_axis',(0.,0.,-1.));
#1273=DIRECTION('ref_axis',(1.,0.,0.));
#1274=DIRECTION('center_axis',(0.,1.,0.));
#1275=DIRECTION('ref_axis',(-1.,0.,0.));
#1276=DIRECTION('',(-1.,0.,0.));
#1277=DIRECTION('',(0.,0.,1.));
#1278=DIRECTION('',(-1.,0.,0.));
#1279=DIRECTION('',(0.,0.,1.));
#1280=DIRECTION('center_axis',(1.,0.,0.));
#1281=DIRECTION('ref_axis',(0.,1.,0.));
#1282=DIRECTION('',(0.,1.,0.));
#1283=DIRECTION('',(0.,1.,0.));
#1284=DIRECTION('',(0.,0.,1.));
#1285=DIRECTION('center_axis',(0.,-1.,0.));
#1286=DIRECTION('ref_axis',(1.,0.,0.));
#1287=DIRECTION('',(1.,0.,0.));
#1288=DIRECTION('',(1.,0.,0.));
#1289=DIRECTION('',(0.,0.,1.));
#1290=DIRECTION('center_axis',(-1.,0.,0.));
#1291=DIRECTION('ref_axis',(0.,-1.,0.));
#1292=DIRECTION('',(0.,-1.,0.));
#1293=DIRECTION('',(0.,-1.,0.));
#1294=DIRECTION('center_axis',(1.,0.,0.));
#1295=DIRECTION('ref_axis',(0.,1.,0.));
#1296=DIRECTION('',(0.,1.,0.));
#1297=DIRECTION('',(0.,0.,1.));
#1298=DIRECTION('',(0.,1.,0.));
#1299=DIRECTION('',(0.,0.,1.));
#1300=DIRECTION('center_axis',(0.,0.,1.));
#1301=DIRECTION('ref_axis',(-1.,0.,0.));
#1302=DIRECTION('center_axis',(0.,0.,-1.));
#1303=DIRECTION('ref_axis',(-1.,0.,0.));
#1304=DIRECTION('center_axis',(0.,0.,-1.));
#1305=DIRECTION('ref_axis',(-1.,0.,0.));
#1306=DIRECTION('',(0.,0.,1.));
#1307=DIRECTION('center_axis',(0.,1.,0.));
#1308=DIRECTION('ref_axis',(-1.,0.,0.));
#1309=DIRECTION('',(-1.,0.,0.));
#1310=DIRECTION('',(-1.,0.,0.));
#1311=DIRECTION('',(0.,0.,1.));
#1312=DIRECTION('center_axis',(0.,0.,1.));
#1313=DIRECTION('ref_axis',(0.,-1.,0.));
#1314=DIRECTION('center_axis',(0.,0.,-1.));
#1315=DIRECTION('ref_axis',(0.,-1.,0.));
#1316=DIRECTION('center_axis',(0.,0.,-1.));
#1317=DIRECTION('ref_axis',(0.,-1.,0.));
#1318=DIRECTION('',(0.,0.,1.));
#1319=DIRECTION('center_axis',(-1.,0.,0.));
#1320=DIRECTION('ref_axis',(0.,-1.,0.));
#1321=DIRECTION('',(0.,-1.,0.));
#1322=DIRECTION('',(0.,-1.,0.));
#1323=DIRECTION('',(0.,0.,1.));
#1324=DIRECTION('center_axis',(0.,0.,1.));
#1325=DIRECTION('ref_axis',(1.,0.,0.));
#1326=DIRECTION('center_axis',(0.,0.,-1.));
#1327=DIRECTION('ref_axis',(1.,0.,0.));
#1328=DIRECTION('center_axis',(0.,0.,-1.));
#1329=DIRECTION('ref_axis',(1.,0.,0.));
#1330=DIRECTION('',(0.,0.,1.));
#1331=DIRECTION('center_axis',(0.,-1.,0.));
#1332=DIRECTION('ref_axis',(1.,0.,0.));
#1333=DIRECTION('',(1.,0.,0.));
#1334=DIRECTION('',(1.,0.,0.));
#1335=DIRECTION('',(0.,0.,1.));
#1336=DIRECTION('center_axis',(0.,0.,1.));
#1337=DIRECTION('ref_axis',(0.,1.,0.));
#1338=DIRECTION('center_axis',(0.,0.,-1.));
#1339=DIRECTION('ref_axis',(0.,1.,0.));
#1340=DIRECTION('center_axis',(0.,0.,-1.));
#1341=DIRECTION('ref_axis',(0.,1.,0.));
#1342=DIRECTION('center_axis',(1.,0.,0.));
#1343=DIRECTION('ref_axis',(0.,1.,0.));
#1344=DIRECTION('',(0.,1.,0.));
#1345=DIRECTION('',(0.,0.,1.));
#1346=DIRECTION('',(0.,1.,0.));
#1347=DIRECTION('',(0.,0.,1.));
#1348=DIRECTION('center_axis',(0.,0.,1.));
#1349=DIRECTION('ref_axis',(-1.,0.,0.));
#1350=DIRECTION('center_axis',(0.,0.,-1.));
#1351=DIRECTION('ref_axis',(-1.,0.,0.));
#1352=DIRECTION('center_axis',(0.,0.,-1.));
#1353=DIRECTION('ref_axis',(-1.,0.,0.));
#1354=DIRECTION('',(0.,0.,1.));
#1355=DIRECTION('center_axis',(0.,1.,0.));
#1356=DIRECTION('ref_axis',(-1.,0.,0.));
#1357=DIRECTION('',(-1.,0.,0.));
#1358=DIRECTION('',(-1.,0.,0.));
#1359=DIRECTION('',(0.,0.,1.));
#1360=DIRECTION('center_axis',(0.,0.,1.));
#1361=DIRECTION('ref_axis',(0.,-1.,0.));
#1362=DIRECTION('center_axis',(0.,0.,-1.));
#1363=DIRECTION('ref_axis',(0.,-1.,0.));
#1364=DIRECTION('center_axis',(0.,0.,-1.));
#1365=DIRECTION('ref_axis',(0.,-1.,0.));
#1366=DIRECTION('',(0.,0.,1.));
#1367=DIRECTION('center_axis',(-1.,0.,0.));
#1368=DIRECTION('ref_axis',(0.,-1.,0.));
#1369=DIRECTION('',(0.,-1.,0.));
#1370=DIRECTION('',(0.,-1.,0.));
#1371=DIRECTION('',(0.,0.,1.));
#1372=DIRECTION('center_axis',(0.,0.,1.));
#1373=DIRECTION('ref_axis',(1.,0.,0.));
#1374=DIRECTION('center_axis',(0.,0.,-1.));
#1375=DIRECTION('ref_axis',(1.,0.,0.));
#1376=DIRECTION('center_axis',(0.,0.,-1.));
#1377=DIRECTION('ref_axis',(1.,0.,0.));
#1378=DIRECTION('',(0.,0.,1.));
#1379=DIRECTION('center_axis',(0.,-1.,0.));
#1380=DIRECTION('ref_axis',(1.,0.,0.));
#1381=DIRECTION('',(1.,0.,0.));
#1382=DIRECTION('',(1.,0.,0.));
#1383=DIRECTION('',(0.,0.,1.));
#1384=DIRECTION('center_axis',(0.,0.,1.));
#1385=DIRECTION('ref_axis',(0.,1.,0.));
#1386=DIRECTION('center_axis',(0.,0.,-1.));
#1387=DIRECTION('ref_axis',(0.,1.,0.));
#1388=DIRECTION('center_axis',(0.,0.,-1.));
#1389=DIRECTION('ref_axis',(0.,1.,0.));
#1390=DIRECTION('center_axis',(1.,0.,0.));
#1391=DIRECTION('ref_axis',(0.,1.,0.));
#1392=DIRECTION('',(0.,1.,0.));
#1393=DIRECTION('',(0.,0.,1.));
#1394=DIRECTION('',(0.,1.,0.));
#1395=DIRECTION('',(0.,0.,1.));
#1396=DIRECTION('center_axis',(0.,0.,1.));
#1397=DIRECTION('ref_axis',(-1.,0.,0.));
#1398=DIRECTION('center_axis',(0.,0.,-1.));
#1399=DIRECTION('ref_axis',(-1.,0.,0.));
#1400=DIRECTION('center_axis',(0.,0.,-1.));
#1401=DIRECTION('ref_axis',(-1.,0.,0.));
#1402=DIRECTION('',(0.,0.,1.));
#1403=DIRECTION('center_axis',(0.,1.,0.));
#1404=DIRECTION('ref_axis',(-1.,0.,0.));
#1405=DIRECTION('',(-1.,0.,0.));
#1406=DIRECTION('',(-1.,0.,0.));
#1407=DIRECTION('',(0.,0.,1.));
#1408=DIRECTION('center_axis',(0.,0.,1.));
#1409=DIRECTION('ref_axis',(0.,-1.,0.));
#1410=DIRECTION('center_axis',(0.,0.,-1.));
#1411=DIRECTION('ref_axis',(0.,-1.,0.));
#1412=DIRECTION('center_axis',(0.,0.,-1.));
#1413=DIRECTION('ref_axis',(0.,-1.,0.));
#1414=DIRECTION('',(0.,0.,1.));
#1415=DIRECTION('center_axis',(-1.,0.,0.));
#1416=DIRECTION('ref_axis',(0.,-1.,0.));
#1417=DIRECTION('',(0.,-1.,0.));
#1418=DIRECTION('',(0.,-1.,0.));
#1419=DIRECTION('',(0.,0.,1.));
#1420=DIRECTION('center_axis',(0.,0.,1.));
#1421=DIRECTION('ref_axis',(1.,0.,0.));
#1422=DIRECTION('center_axis',(0.,0.,-1.));
#1423=DIRECTION('ref_axis',(1.,0.,0.));
#1424=DIRECTION('center_axis',(0.,0.,-1.));
#1425=DIRECTION('ref_axis',(1.,0.,0.));
#1426=DIRECTION('',(0.,0.,1.));
#1427=DIRECTION('center_axis',(0.,-1.,0.));
#1428=DIRECTION('ref_axis',(1.,0.,0.));
#1429=DIRECTION('',(1.,0.,0.));
#1430=DIRECTION('',(1.,0.,0.));
#1431=DIRECTION('',(0.,0.,1.));
#1432=DIRECTION('center_axis',(0.,0.,1.));
#1433=DIRECTION('ref_axis',(0.,1.,0.));
#1434=DIRECTION('center_axis',(0.,0.,-1.));
#1435=DIRECTION('ref_axis',(0.,1.,0.));
#1436=DIRECTION('center_axis',(0.,0.,-1.));
#1437=DIRECTION('ref_axis',(0.,1.,0.));
#1438=DIRECTION('center_axis',(0.,0.,1.));
#1439=DIRECTION('ref_axis',(1.,0.,0.));
#1440=DIRECTION('center_axis',(0.,0.,1.));
#1441=DIRECTION('ref_axis',(1.,0.,0.));
#1442=CARTESIAN_POINT('',(0.,0.,0.));
#1443=CARTESIAN_POINT('Origin',(68.4,2.44573032227009,6.02720718290913));
#1444=CARTESIAN_POINT('',(68.4,2.44573032227009,6.02720718290913));
#1445=CARTESIAN_POINT('',(68.4,2.44573032227009,13.));
#1446=CARTESIAN_POINT('',(68.4,2.44573032227009,3.01360359145456));
#1447=CARTESIAN_POINT('',(58.4,2.44573032227009,6.02720718290913));
#1448=CARTESIAN_POINT('',(68.4,2.44573032227009,6.02720718290913));
#1449=CARTESIAN_POINT('',(58.4,2.44573032227009,13.));
#1450=CARTESIAN_POINT('',(58.4,2.44573032227009,3.01360359145456));
#1451=CARTESIAN_POINT('',(48.8,2.44573032227009,13.));
#1452=CARTESIAN_POINT('Origin',(68.4,16.9457303222701,6.02720718290913));
#1453=CARTESIAN_POINT('',(68.4,16.9457303222701,6.02720718290913));
#1454=CARTESIAN_POINT('',(68.4,3.47286516113504,6.02720718290913));
#1455=CARTESIAN_POINT('',(58.4,16.9457303222701,6.02720718290913));
#1456=CARTESIAN_POINT('',(68.4,16.9457303222701,6.02720718290913));
#1457=CARTESIAN_POINT('',(58.4,18.172865161135,6.02720718290913));
#1458=CARTESIAN_POINT('Origin',(68.4,16.9457303222701,13.));
#1459=CARTESIAN_POINT('',(68.4,16.9457303222701,13.));
#1460=CARTESIAN_POINT('',(68.4,16.9457303222701,6.5));
#1461=CARTESIAN_POINT('',(58.4,16.9457303222701,13.));
#1462=CARTESIAN_POINT('',(48.8,16.9457303222701,13.));
#1463=CARTESIAN_POINT('',(58.4,16.9457303222701,6.5));
#1464=CARTESIAN_POINT('Origin',(58.4,19.4,0.));
#1465=CARTESIAN_POINT('',(58.4,19.4,13.));
#1466=CARTESIAN_POINT('',(58.4,0.,13.));
#1467=CARTESIAN_POINT('',(58.4,19.4,3.));
#1468=CARTESIAN_POINT('',(58.4,19.4,0.));
#1469=CARTESIAN_POINT('',(58.4,0.,3.));
#1470=CARTESIAN_POINT('',(58.4,14.55,3.));
#1471=CARTESIAN_POINT('',(58.4,0.,13.));
#1472=CARTESIAN_POINT('',(58.4,0.,0.));
#1473=CARTESIAN_POINT('',(58.4,0.,13.));
#1474=CARTESIAN_POINT('Origin',(68.4,-10.,0.));
#1475=CARTESIAN_POINT('',(68.4,-10.,13.));
#1476=CARTESIAN_POINT('',(68.4,-10.,13.));
#1477=CARTESIAN_POINT('',(68.4,-10.,0.));
#1478=CARTESIAN_POINT('',(68.4,-10.,0.));
#1479=CARTESIAN_POINT('',(68.4,29.4,0.));
#1480=CARTESIAN_POINT('',(68.4,-10.,0.));
#1481=CARTESIAN_POINT('',(68.4,29.4,13.));
#1482=CARTESIAN_POINT('',(68.4,29.4,0.));
#1483=CARTESIAN_POINT('',(68.4,-10.,13.));
#1484=CARTESIAN_POINT('Origin',(58.4,0.,0.));
#1485=CARTESIAN_POINT('',(0.,0.,3.));
#1486=CARTESIAN_POINT('',(43.8,0.,3.));
#1487=CARTESIAN_POINT('',(0.,0.,13.));
#1488=CARTESIAN_POINT('',(0.,0.,0.));
#1489=CARTESIAN_POINT('',(0.,0.,13.));
#1490=CARTESIAN_POINT('Origin',(0.,19.4,0.));
#1491=CARTESIAN_POINT('',(0.,19.4,3.));
#1492=CARTESIAN_POINT('',(14.6,19.4,3.));
#1493=CARTESIAN_POINT('',(0.,19.4,13.));
#1494=CARTESIAN_POINT('',(58.4,19.4,13.));
#1495=CARTESIAN_POINT('',(0.,19.4,0.));
#1496=CARTESIAN_POINT('Origin',(0.,0.,0.));
#1497=CARTESIAN_POINT('',(0.,4.85,3.));
#1498=CARTESIAN_POINT('',(0.,19.4,13.));
#1499=CARTESIAN_POINT('Origin',(29.2,9.7,13.));
#1500=CARTESIAN_POINT('',(-10.,29.4,13.));
#1501=CARTESIAN_POINT('',(68.4,29.4,13.));
#1502=CARTESIAN_POINT('',(-10.,-10.,13.));
#1503=CARTESIAN_POINT('',(-10.,29.4,13.));
#1504=CARTESIAN_POINT('',(-10.,-10.,13.));
#1505=CARTESIAN_POINT('',(-6.45,-5.,13.));
#1506=CARTESIAN_POINT('Origin',(-5.,-5.,13.));
#1507=CARTESIAN_POINT('',(-6.45,24.4,13.));
#1508=CARTESIAN_POINT('Origin',(-5.,24.4,13.));
#1509=CARTESIAN_POINT('',(61.95,24.4,13.));
#1510=CARTESIAN_POINT('Origin',(63.4,24.4,13.));
#1511=CARTESIAN_POINT('',(61.95,-5.,13.));
#1512=CARTESIAN_POINT('Origin',(63.4,-5.,13.));
#1513=CARTESIAN_POINT('Origin',(-5.,-5.,0.));
#1514=CARTESIAN_POINT('',(-6.45,-5.,0.));
#1515=CARTESIAN_POINT('',(-6.45,-5.,0.));
#1516=CARTESIAN_POINT('Origin',(-5.,-5.,0.));
#1517=CARTESIAN_POINT('Origin',(-5.,24.4,0.));
#1518=CARTESIAN_POINT('',(-6.45,24.4,0.));
#1519=CARTESIAN_POINT('',(-6.45,24.4,0.));
#1520=CARTESIAN_POINT('Origin',(-5.,24.4,0.));
#1521=CARTESIAN_POINT('Origin',(63.4,-5.,0.));
#1522=CARTESIAN_POINT('',(61.95,-5.,0.));
#1523=CARTESIAN_POINT('',(61.95,-5.,0.));
#1524=CARTESIAN_POINT('Origin',(63.4,-5.,0.));
#1525=CARTESIAN_POINT('Origin',(63.4,24.4,0.));
#1526=CARTESIAN_POINT('',(61.95,24.4,0.));
#1527=CARTESIAN_POINT('',(61.95,24.4,0.));
#1528=CARTESIAN_POINT('Origin',(63.4,24.4,0.));
#1529=CARTESIAN_POINT('Origin',(68.4,29.4,0.));
#1530=CARTESIAN_POINT('',(-10.,29.4,0.));
#1531=CARTESIAN_POINT('',(68.4,29.4,0.));
#1532=CARTESIAN_POINT('',(-10.,29.4,0.));
#1533=CARTESIAN_POINT('Origin',(-10.,-10.,0.));
#1534=CARTESIAN_POINT('',(-10.,-10.,0.));
#1535=CARTESIAN_POINT('',(-10.,-10.,0.));
#1536=CARTESIAN_POINT('',(-10.,-10.,0.));
#1537=CARTESIAN_POINT('Origin',(-10.,29.4,0.));
#1538=CARTESIAN_POINT('',(-10.,29.4,0.));
#1539=CARTESIAN_POINT('Origin',(29.2,9.7,3.));
#1540=CARTESIAN_POINT('Origin',(29.2,9.7,0.));
#1541=CARTESIAN_POINT('Origin',(63.4,-5.,13.));
#1542=CARTESIAN_POINT('',(61.95,-5.,16.));
#1543=CARTESIAN_POINT('Origin',(63.4,-5.,16.));
#1544=CARTESIAN_POINT('',(61.95,-5.,13.));
#1545=CARTESIAN_POINT('',(61.95,-5.,13.));
#1546=CARTESIAN_POINT('Origin',(63.4,-5.,13.));
#1547=CARTESIAN_POINT('Origin',(63.4,24.4,13.));
#1548=CARTESIAN_POINT('',(61.95,24.4,16.));
#1549=CARTESIAN_POINT('Origin',(63.4,24.4,16.));
#1550=CARTESIAN_POINT('',(61.95,24.4,13.));
#1551=CARTESIAN_POINT('',(61.95,24.4,13.));
#1552=CARTESIAN_POINT('Origin',(63.4,24.4,13.));
#1553=CARTESIAN_POINT('Origin',(-5.,24.4,13.));
#1554=CARTESIAN_POINT('',(-6.45,24.4,16.));
#1555=CARTESIAN_POINT('Origin',(-5.,24.4,16.));
#1556=CARTESIAN_POINT('',(-6.45,24.4,13.));
#1557=CARTESIAN_POINT('',(-6.45,24.4,13.));
#1558=CARTESIAN_POINT('Origin',(-5.,24.4,13.));
#1559=CARTESIAN_POINT('Origin',(-5.,-5.,13.));
#1560=CARTESIAN_POINT('',(-6.45,-5.,16.));
#1561=CARTESIAN_POINT('Origin',(-5.,-5.,16.));
#1562=CARTESIAN_POINT('',(-6.45,-5.,13.));
#1563=CARTESIAN_POINT('',(-6.45,-5.,13.));
#1564=CARTESIAN_POINT('Origin',(-5.,-5.,13.));
#1565=CARTESIAN_POINT('Origin',(68.4,29.4,13.));
#1566=CARTESIAN_POINT('',(68.4,29.4,13.));
#1567=CARTESIAN_POINT('',(-10.,29.4,13.));
#1568=CARTESIAN_POINT('',(68.4,29.4,13.));
#1569=CARTESIAN_POINT('',(-10.,29.4,16.));
#1570=CARTESIAN_POINT('',(-10.,29.4,13.));
#1571=CARTESIAN_POINT('',(68.4,29.4,16.));
#1572=CARTESIAN_POINT('',(68.4,29.4,16.));
#1573=CARTESIAN_POINT('',(68.4,29.4,13.));
#1574=CARTESIAN_POINT('Origin',(68.4,-10.,13.));
#1575=CARTESIAN_POINT('',(68.4,-10.,13.));
#1576=CARTESIAN_POINT('',(68.4,-10.,13.));
#1577=CARTESIAN_POINT('',(68.4,-10.,16.));
#1578=CARTESIAN_POINT('',(68.4,-10.,16.));
#1579=CARTESIAN_POINT('',(68.4,-10.,13.));
#1580=CARTESIAN_POINT('Origin',(-10.,-10.,13.));
#1581=CARTESIAN_POINT('',(-10.,-10.,13.));
#1582=CARTESIAN_POINT('',(-10.,-10.,13.));
#1583=CARTESIAN_POINT('',(-10.,-10.,16.));
#1584=CARTESIAN_POINT('',(-10.,-10.,16.));
#1585=CARTESIAN_POINT('',(-10.,-10.,13.));
#1586=CARTESIAN_POINT('Origin',(-10.,29.4,13.));
#1587=CARTESIAN_POINT('',(-10.,29.4,13.));
#1588=CARTESIAN_POINT('',(-10.,29.4,16.));
#1589=CARTESIAN_POINT('Origin',(41.125,3.475,13.));
#1590=CARTESIAN_POINT('',(41.125,3.475,13.));
#1591=CARTESIAN_POINT('',(41.125,16.475,13.));
#1592=CARTESIAN_POINT('',(41.125,16.475,13.));
#1593=CARTESIAN_POINT('',(41.125,16.475,16.));
#1594=CARTESIAN_POINT('',(41.125,16.475,13.));
#1595=CARTESIAN_POINT('',(41.125,3.475,16.));
#1596=CARTESIAN_POINT('',(41.125,16.475,16.));
#1597=CARTESIAN_POINT('',(41.125,3.475,13.));
#1598=CARTESIAN_POINT('Origin',(41.625,3.475,13.));
#1599=CARTESIAN_POINT('',(41.625,2.975,13.));
#1600=CARTESIAN_POINT('Origin',(41.625,3.475,13.));
#1601=CARTESIAN_POINT('',(41.625,2.975,16.));
#1602=CARTESIAN_POINT('Origin',(41.625,3.475,16.));
#1603=CARTESIAN_POINT('',(41.625,2.975,13.));
#1604=CARTESIAN_POINT('Origin',(54.625,2.975,13.));
#1605=CARTESIAN_POINT('',(54.625,2.975,13.));
#1606=CARTESIAN_POINT('',(41.625,2.975,13.));
#1607=CARTESIAN_POINT('',(54.625,2.975,16.));
#1608=CARTESIAN_POINT('',(41.625,2.975,16.));
#1609=CARTESIAN_POINT('',(54.625,2.975,13.));
#1610=CARTESIAN_POINT('Origin',(54.625,3.475,13.));
#1611=CARTESIAN_POINT('',(55.125,3.475,13.));
#1612=CARTESIAN_POINT('Origin',(54.625,3.475,13.));
#1613=CARTESIAN_POINT('',(55.125,3.475,16.));
#1614=CARTESIAN_POINT('Origin',(54.625,3.475,16.));
#1615=CARTESIAN_POINT('',(55.125,3.475,13.));
#1616=CARTESIAN_POINT('Origin',(55.125,16.475,13.));
#1617=CARTESIAN_POINT('',(55.125,16.475,13.));
#1618=CARTESIAN_POINT('',(55.125,16.475,13.));
#1619=CARTESIAN_POINT('',(55.125,16.475,16.));
#1620=CARTESIAN_POINT('',(55.125,16.475,16.));
#1621=CARTESIAN_POINT('',(55.125,16.475,13.));
#1622=CARTESIAN_POINT('Origin',(54.625,16.475,13.));
#1623=CARTESIAN_POINT('',(54.625,16.975,13.));
#1624=CARTESIAN_POINT('Origin',(54.625,16.475,13.));
#1625=CARTESIAN_POINT('',(54.625,16.975,16.));
#1626=CARTESIAN_POINT('Origin',(54.625,16.475,16.));
#1627=CARTESIAN_POINT('',(54.625,16.975,13.));
#1628=CARTESIAN_POINT('Origin',(41.625,16.975,13.));
#1629=CARTESIAN_POINT('',(41.625,16.975,13.));
#1630=CARTESIAN_POINT('',(41.625,16.975,13.));
#1631=CARTESIAN_POINT('',(41.625,16.975,16.));
#1632=CARTESIAN_POINT('',(41.625,16.975,16.));
#1633=CARTESIAN_POINT('',(41.625,16.975,13.));
#1634=CARTESIAN_POINT('Origin',(41.625,16.475,13.));
#1635=CARTESIAN_POINT('Origin',(41.625,16.475,13.));
#1636=CARTESIAN_POINT('Origin',(41.625,16.475,16.));
#1637=CARTESIAN_POINT('Origin',(3.025,3.475,13.));
#1638=CARTESIAN_POINT('',(3.025,3.475,13.));
#1639=CARTESIAN_POINT('',(3.025,16.475,13.));
#1640=CARTESIAN_POINT('',(3.025,16.475,13.));
#1641=CARTESIAN_POINT('',(3.025,16.475,16.));
#1642=CARTESIAN_POINT('',(3.025,16.475,13.));
#1643=CARTESIAN_POINT('',(3.025,3.475,16.));
#1644=CARTESIAN_POINT('',(3.025,16.475,16.));
#1645=CARTESIAN_POINT('',(3.025,3.475,13.));
#1646=CARTESIAN_POINT('Origin',(3.525,3.475,13.));
#1647=CARTESIAN_POINT('',(3.525,2.975,13.));
#1648=CARTESIAN_POINT('Origin',(3.525,3.475,13.));
#1649=CARTESIAN_POINT('',(3.525,2.975,16.));
#1650=CARTESIAN_POINT('Origin',(3.525,3.475,16.));
#1651=CARTESIAN_POINT('',(3.525,2.975,13.));
#1652=CARTESIAN_POINT('Origin',(16.525,2.975,13.));
#1653=CARTESIAN_POINT('',(16.525,2.975,13.));
#1654=CARTESIAN_POINT('',(3.525,2.975,13.));
#1655=CARTESIAN_POINT('',(16.525,2.975,16.));
#1656=CARTESIAN_POINT('',(3.525,2.975,16.));
#1657=CARTESIAN_POINT('',(16.525,2.975,13.));
#1658=CARTESIAN_POINT('Origin',(16.525,3.475,13.));
#1659=CARTESIAN_POINT('',(17.025,3.475,13.));
#1660=CARTESIAN_POINT('Origin',(16.525,3.475,13.));
#1661=CARTESIAN_POINT('',(17.025,3.475,16.));
#1662=CARTESIAN_POINT('Origin',(16.525,3.475,16.));
#1663=CARTESIAN_POINT('',(17.025,3.475,13.));
#1664=CARTESIAN_POINT('Origin',(17.025,16.475,13.));
#1665=CARTESIAN_POINT('',(17.025,16.475,13.));
#1666=CARTESIAN_POINT('',(17.025,16.475,13.));
#1667=CARTESIAN_POINT('',(17.025,16.475,16.));
#1668=CARTESIAN_POINT('',(17.025,16.475,16.));
#1669=CARTESIAN_POINT('',(17.025,16.475,13.));
#1670=CARTESIAN_POINT('Origin',(16.525,16.475,13.));
#1671=CARTESIAN_POINT('',(16.525,16.975,13.));
#1672=CARTESIAN_POINT('Origin',(16.525,16.475,13.));
#1673=CARTESIAN_POINT('',(16.525,16.975,16.));
#1674=CARTESIAN_POINT('Origin',(16.525,16.475,16.));
#1675=CARTESIAN_POINT('',(16.525,16.975,13.));
#1676=CARTESIAN_POINT('Origin',(3.525,16.975,13.));
#1677=CARTESIAN_POINT('',(3.525,16.975,13.));
#1678=CARTESIAN_POINT('',(3.525,16.975,13.));
#1679=CARTESIAN_POINT('',(3.525,16.975,16.));
#1680=CARTESIAN_POINT('',(3.525,16.975,16.));
#1681=CARTESIAN_POINT('',(3.525,16.975,13.));
#1682=CARTESIAN_POINT('Origin',(3.525,16.475,13.));
#1683=CARTESIAN_POINT('Origin',(3.525,16.475,13.));
#1684=CARTESIAN_POINT('Origin',(3.525,16.475,16.));
#1685=CARTESIAN_POINT('Origin',(22.075,3.475,13.));
#1686=CARTESIAN_POINT('',(22.075,3.475,13.));
#1687=CARTESIAN_POINT('',(22.075,16.475,13.));
#1688=CARTESIAN_POINT('',(22.075,16.475,13.));
#1689=CARTESIAN_POINT('',(22.075,16.475,16.));
#1690=CARTESIAN_POINT('',(22.075,16.475,13.));
#1691=CARTESIAN_POINT('',(22.075,3.475,16.));
#1692=CARTESIAN_POINT('',(22.075,16.475,16.));
#1693=CARTESIAN_POINT('',(22.075,3.475,13.));
#1694=CARTESIAN_POINT('Origin',(22.575,3.475,13.));
#1695=CARTESIAN_POINT('',(22.575,2.975,13.));
#1696=CARTESIAN_POINT('Origin',(22.575,3.475,13.));
#1697=CARTESIAN_POINT('',(22.575,2.975,16.));
#1698=CARTESIAN_POINT('Origin',(22.575,3.475,16.));
#1699=CARTESIAN_POINT('',(22.575,2.975,13.));
#1700=CARTESIAN_POINT('Origin',(35.575,2.975,13.));
#1701=CARTESIAN_POINT('',(35.575,2.975,13.));
#1702=CARTESIAN_POINT('',(22.575,2.975,13.));
#1703=CARTESIAN_POINT('',(35.575,2.975,16.));
#1704=CARTESIAN_POINT('',(22.575,2.975,16.));
#1705=CARTESIAN_POINT('',(35.575,2.975,13.));
#1706=CARTESIAN_POINT('Origin',(35.575,3.475,13.));
#1707=CARTESIAN_POINT('',(36.075,3.475,13.));
#1708=CARTESIAN_POINT('Origin',(35.575,3.475,13.));
#1709=CARTESIAN_POINT('',(36.075,3.475,16.));
#1710=CARTESIAN_POINT('Origin',(35.575,3.475,16.));
#1711=CARTESIAN_POINT('',(36.075,3.475,13.));
#1712=CARTESIAN_POINT('Origin',(36.075,16.475,13.));
#1713=CARTESIAN_POINT('',(36.075,16.475,13.));
#1714=CARTESIAN_POINT('',(36.075,16.475,13.));
#1715=CARTESIAN_POINT('',(36.075,16.475,16.));
#1716=CARTESIAN_POINT('',(36.075,16.475,16.));
#1717=CARTESIAN_POINT('',(36.075,16.475,13.));
#1718=CARTESIAN_POINT('Origin',(35.575,16.475,13.));
#1719=CARTESIAN_POINT('',(35.575,16.975,13.));
#1720=CARTESIAN_POINT('Origin',(35.575,16.475,13.));
#1721=CARTESIAN_POINT('',(35.575,16.975,16.));
#1722=CARTESIAN_POINT('Origin',(35.575,16.475,16.));
#1723=CARTESIAN_POINT('',(35.575,16.975,13.));
#1724=CARTESIAN_POINT('Origin',(22.575,16.975,13.));
#1725=CARTESIAN_POINT('',(22.575,16.975,13.));
#1726=CARTESIAN_POINT('',(22.575,16.975,13.));
#1727=CARTESIAN_POINT('',(22.575,16.975,16.));
#1728=CARTESIAN_POINT('',(22.575,16.975,16.));
#1729=CARTESIAN_POINT('',(22.575,16.975,13.));
#1730=CARTESIAN_POINT('Origin',(22.575,16.475,13.));
#1731=CARTESIAN_POINT('Origin',(22.575,16.475,13.));
#1732=CARTESIAN_POINT('Origin',(22.575,16.475,16.));
#1733=CARTESIAN_POINT('Origin',(29.075,9.975,16.));
#1734=CARTESIAN_POINT('Origin',(29.075,9.975,13.));
#1735=UNCERTAINTY_MEASURE_WITH_UNIT(LENGTH_MEASURE(0.01),#1739,
'DISTANCE_ACCURACY_VALUE',
'Maximum model space distance between geometric entities at asserted c
onnectivities');
#1736=UNCERTAINTY_MEASURE_WITH_UNIT(LENGTH_MEASURE(0.01),#1739,
'DISTANCE_ACCURACY_VALUE',
'Maximum model space distance between geometric entities at asserted c
onnectivities');
#1737=(
GEOMETRIC_REPRESENTATION_CONTEXT(3)
GLOBAL_UNCERTAINTY_ASSIGNED_CONTEXT((#1735))
GLOBAL_UNIT_ASSIGNED_CONTEXT((#1739,#1741,#1742))
REPRESENTATION_CONTEXT('','3D')
);
#1738=(
GEOMETRIC_REPRESENTATION_CONTEXT(3)
GLOBAL_UNCERTAINTY_ASSIGNED_CONTEXT((#1736))
GLOBAL_UNIT_ASSIGNED_CONTEXT((#1739,#1741,#1742))
REPRESENTATION_CONTEXT('','3D')
);
#1739=(
LENGTH_UNIT()
NAMED_UNIT(*)
SI_UNIT(.MILLI.,.METRE.)
);
#1740=(
LENGTH_UNIT()
NAMED_UNIT(*)
SI_UNIT($,.METRE.)
);
#1741=(
NAMED_UNIT(*)
PLANE_ANGLE_UNIT()
SI_UNIT($,.RADIAN.)
);
#1742=(
NAMED_UNIT(*)
SI_UNIT($,.STERADIAN.)
SOLID_ANGLE_UNIT()
);
#1743=SHAPE_DEFINITION_REPRESENTATION(#1744,#1745);
#1744=PRODUCT_DEFINITION_SHAPE('',$,#1747);
#1745=SHAPE_REPRESENTATION('',(#1059),#1737);
#1746=PRODUCT_DEFINITION_CONTEXT('part definition',#1751,'design');
#1747=PRODUCT_DEFINITION('hackpadenclosure','hackpadenclosure v1',#1748,
#1746);
#1748=PRODUCT_DEFINITION_FORMATION('',$,#1753);
#1749=PRODUCT_RELATED_PRODUCT_CATEGORY('hackpadenclosure v1',
'hackpadenclosure v1',(#1753));
#1750=APPLICATION_PROTOCOL_DEFINITION('international standard',
'automotive_design',2009,#1751);
#1751=APPLICATION_CONTEXT(
'Core Data for Automotive Mechanical Design Process');
#1752=PRODUCT_CONTEXT('part definition',#1751,'mechanical');
#1753=PRODUCT('hackpadenclosure','hackpadenclosure v1',$,(#1752));
#1754=PRESENTATION_STYLE_ASSIGNMENT((#1755));
#1755=SURFACE_STYLE_USAGE(.BOTH.,#1756);
#1756=SURFACE_SIDE_STYLE('',(#1757));
#1757=SURFACE_STYLE_FILL_AREA(#1758);
#1758=FILL_AREA_STYLE('Steel - Satin',(#1759));
#1759=FILL_AREA_STYLE_COLOUR('Steel - Satin',#1760);
#1760=COLOUR_RGB('Steel - Satin',0.627450980392157,0.627450980392157,0.627450980392157);
ENDSEC;
END-ISO-10303-21;
